<svg width="24" height="24" viewBox="0 0 24 24" fill="none" xmlns="http://www.w3.org/2000/svg">
<path id="Vector" d="M19.5365 7.52087C19.6636 7.39801 19.8343 7.33064 20.0111 7.33357C20.1878 7.33649 20.3562 7.40947 20.4792 7.53647L23.4349 10.5937C23.7915 10.966 23.9919 11.4606 23.9949 11.9761C23.9955 11.9845 24 11.9915 24 12C24 12.0085 23.9955 12.0155 23.9952 12.0239C23.9922 12.5393 23.7918 13.034 23.4352 13.4062L20.4795 16.4635C20.3565 16.5905 20.1881 16.6636 20.0114 16.6665C19.8346 16.6695 19.6638 16.602 19.5368 16.4791C19.4097 16.3562 19.3366 16.1878 19.3337 16.011C19.3308 15.8342 19.3982 15.6635 19.5211 15.5364L22.2953 12.6667L7.30533 12.6667C7.12852 12.6667 6.95895 12.5964 6.83393 12.4714C6.7089 12.3464 6.63867 12.1768 6.63867 12C6.63867 11.8232 6.7089 11.6536 6.83393 11.5286C6.95895 11.4036 7.12852 11.3333 7.30533 11.3333L22.2953 11.3333L19.5208 8.46353C19.4598 8.40065 19.4119 8.32637 19.3797 8.24494C19.3475 8.1635 19.3316 8.07651 19.3331 7.98895C19.3346 7.90139 19.3533 7.81497 19.3882 7.73465C19.4231 7.65433 19.4735 7.58168 19.5365 7.52087ZM17.3333 22L17.3333 16C17.3333 15.8232 17.2631 15.6536 17.1381 15.5286C17.013 15.4036 16.8435 15.3333 16.6667 15.3333C16.4899 15.3333 16.3203 15.4036 16.1953 15.5286C16.0702 15.6536 16 15.8232 16 16L16 22C15.9999 22.1768 15.9296 22.3463 15.8046 22.4713C15.6796 22.5963 15.5101 22.6665 15.3333 22.6667L2 22.6667C1.82323 22.6665 1.65373 22.5963 1.52873 22.4713C1.40374 22.3463 1.33346 22.1768 1.33333 22L1.33333 2C1.33346 1.82323 1.40374 1.65373 1.52873 1.52873C1.65373 1.40373 1.82323 1.33346 2 1.33333L15.3333 1.33333C15.5101 1.33346 15.6796 1.40373 15.8046 1.52873C15.9296 1.65373 15.9999 1.82323 16 2L16 8C16 8.17681 16.0702 8.34638 16.1953 8.4714C16.3203 8.59643 16.4899 8.66667 16.6667 8.66667C16.8435 8.66667 17.013 8.59643 17.1381 8.4714C17.2631 8.34638 17.3333 8.17681 17.3333 8L17.3333 2C17.3328 1.46975 17.1219 0.961376 16.7469 0.586429C16.372 0.211483 15.8636 0.000581964 15.3333 -3.78832e-07L2 -9.6165e-07C1.46975 0.000581335 0.961376 0.211482 0.58643 0.586429C0.211483 0.961375 0.000583584 1.46974 1.81993e-06 2L9.45698e-07 22C0.000582664 22.5303 0.211482 23.0386 0.586429 23.4136C0.961375 23.7885 1.46975 23.9994 2 24L15.3333 24C15.8636 23.9994 16.372 23.7885 16.7469 23.4136C17.1218 23.0386 17.3328 22.5303 17.3333 22Z" fill="#848484"/>
</svg>
