<svg width="44" height="44" viewBox="0 0 44 44" fill="none" xmlns="http://www.w3.org/2000/svg">
<g clip-path="url(#clip0_265_8808)">
<path d="M39.25 9.64787H36.29V8.12787C36.29 7.37787 35.83 6.71787 35.14 6.48787C29.54 4.57787 23.1 8.86787 22 9.84787C20.89 8.86787 14.46 4.56787 8.85 6.48787C8.17 6.71787 7.71 7.37787 7.71 8.12787V9.64787H4.75C3.23 9.64787 2 10.8779 2 12.3979V33.7179C2 35.2379 3.23 36.4679 4.75 36.4679H18.02C18.43 36.4679 18.77 36.1279 18.77 35.7179C18.77 35.3079 18.43 34.9679 18.02 34.9679H4.75C4.06 34.9679 3.5 34.4079 3.5 33.7179V12.3979C3.5 11.7079 4.06 11.1479 4.75 11.1479H7.71V30.6879C7.71 31.1779 7.92 31.6479 8.28 31.9779C8.64 32.3079 9.12 32.4679 9.6 32.4279C16.55 31.8379 19.67 34.5379 20.69 35.4179C20.69 35.4179 20.77 35.4579 20.81 35.4879C21.06 35.7279 21.51 35.8979 22.02 35.8979C22.53 35.8979 23.01 35.7179 23.26 35.4579C23.28 35.4479 23.3 35.4379 23.32 35.4179C24.34 34.5279 27.46 31.8379 34.41 32.4279C34.89 32.4679 35.37 32.3079 35.73 31.9779C36.09 31.6479 36.3 31.1779 36.3 30.6879V11.1479H39.26C39.95 11.1479 40.51 11.7079 40.51 12.3979V33.7179C40.51 34.4079 39.95 34.9679 39.26 34.9679H25.99C25.58 34.9679 25.24 35.3079 25.24 35.7179C25.24 36.1279 25.58 36.4679 25.99 36.4679H39.26C40.78 36.4679 42.01 35.2379 42.01 33.7179V12.3979C42.01 10.8779 40.78 9.64787 39.26 9.64787H39.25ZM21.25 33.9279C19.94 32.8479 17.01 30.8379 11.52 30.8379C10.87 30.8379 10.19 30.8679 9.47 30.9279C9.39 30.9279 9.33 30.8979 9.29 30.8679C9.26 30.8379 9.21 30.7779 9.21 30.6779V8.12787C9.21 8.02787 9.27 7.92787 9.34 7.90787C14.22 6.23787 20.14 10.1879 21.02 10.9879C21.17 11.1179 21.25 11.2979 21.25 11.4879V33.9379V33.9279ZM34.79 30.6779C34.79 30.7779 34.74 30.8379 34.71 30.8679C34.67 30.8979 34.61 30.9379 34.53 30.9279C27.71 30.3479 24.22 32.7179 22.75 33.9279V11.4879C22.75 11.2979 22.83 11.1179 22.98 10.9879C23.71 10.3279 27.9 7.49787 32.09 7.49787C32.96 7.49787 33.83 7.61787 34.66 7.90787C34.73 7.93787 34.79 8.02787 34.79 8.12787V30.6879V30.6779Z" fill="#848484"/>
</g>
<defs>
<clipPath id="clip0_265_8808">
<rect width="40" height="30.47" fill="white" transform="translate(2 6)"/>
</clipPath>
</defs>
</svg>
