<svg width="19" height="19" viewBox="0 0 19 19" fill="none" xmlns="http://www.w3.org/2000/svg">
<g id="_Instagram">
<path id="Vector" d="M4.8179 18.9328C3.68797 18.8814 3.07415 18.6934 2.66588 18.5341C2.12491 18.3235 1.73923 18.0728 1.33322 17.6673C0.927215 17.2619 0.675929 16.8762 0.466431 16.3352C0.307189 15.927 0.119149 15.3132 0.0677624 14.1832C0.0112937 12.9618 0 12.5953 0 9.50085C0 6.40637 0.0124231 6.04045 0.0671977 4.8179C0.118584 3.68797 0.307754 3.07528 0.465866 2.66588C0.676494 2.12491 0.92778 1.73923 1.33266 1.33266C1.7381 0.927215 2.12379 0.675365 2.66532 0.465866C3.07359 0.306625 3.6874 0.118584 4.81734 0.0671977C6.03932 0.0112937 6.40637 0 9.49972 0C12.5942 0 12.9601 0.0124231 14.1827 0.0671977C15.3126 0.118584 15.9253 0.307754 16.3347 0.465866C16.8757 0.675365 17.2613 0.927215 17.6673 1.33266C18.0733 1.7381 18.3235 2.12435 18.5341 2.66532C18.6934 3.07359 18.8814 3.6874 18.9328 4.81734C18.9887 6.03988 19 6.4058 19 9.50028C19 12.5936 18.9887 12.9607 18.9328 14.1832C18.8814 15.3132 18.6922 15.927 18.5341 16.3352C18.3235 16.8762 18.0728 17.2619 17.6673 17.6673C17.2619 18.0728 16.8757 18.3235 16.3347 18.5341C15.9264 18.6934 15.3126 18.8814 14.1827 18.9328C12.9612 18.9887 12.5942 19 9.49972 19C6.40637 19 6.03932 18.9893 4.8179 18.9328Z" fill="url(#paint0_radial_4318_56501)"/>
<path id="Vector_2" d="M7.34371 9.4301C7.34371 8.2766 8.27855 7.34126 9.43206 7.34126C10.5856 7.34126 11.5209 8.2766 11.5209 9.4301C11.5209 10.5836 10.5856 11.519 9.43206 11.519C8.27855 11.519 7.34371 10.5836 7.34371 9.4301ZM6.21452 9.4301C6.21452 11.2072 7.65501 12.6476 9.43206 12.6476C11.2091 12.6476 12.6496 11.2072 12.6496 9.4301C12.6496 7.65305 11.2091 6.21257 9.43206 6.21257C7.65501 6.21257 6.21457 7.65295 6.21457 9.4301M12.0251 6.08499C12.025 6.23371 12.0691 6.3791 12.1517 6.50279C12.2342 6.62647 12.3516 6.7229 12.489 6.77986C12.6264 6.83683 12.7775 6.85178 12.9234 6.82283C13.0693 6.79387 13.2033 6.72231 13.3085 6.61719C13.4137 6.51208 13.4854 6.37813 13.5144 6.23228C13.5435 6.08643 13.5287 5.93524 13.4718 5.79782C13.415 5.6604 13.3186 5.54293 13.195 5.46026C13.0714 5.37758 12.926 5.33343 12.7773 5.33337H12.777C12.5777 5.33346 12.3865 5.41267 12.2455 5.5536C12.1046 5.69452 12.0253 5.88565 12.0251 6.08499ZM6.90058 14.5306C6.28966 14.5027 5.95761 14.401 5.73695 14.315C5.4444 14.2011 5.23566 14.0655 5.0162 13.8463C4.79674 13.6271 4.66089 13.4186 4.5475 13.1261C4.46148 12.9055 4.35972 12.5733 4.33195 11.9624C4.30157 11.3019 4.29551 11.1035 4.29551 9.4302C4.29551 7.75687 4.30207 7.55901 4.33195 6.89797C4.35977 6.28706 4.46228 5.95556 4.5475 5.73434C4.66139 5.44179 4.79704 5.23306 5.0162 5.0136C5.23536 4.79414 5.4439 4.65829 5.73695 4.5449C5.95751 4.45888 6.28966 4.35712 6.90058 4.32935C7.56107 4.29897 7.75948 4.2929 9.43206 4.2929C11.1046 4.2929 11.3032 4.29937 11.9643 4.32945C12.5752 4.35727 12.9067 4.45978 13.1279 4.545C13.4205 4.65839 13.6292 4.79454 13.8487 5.0137C14.0681 5.23286 14.2035 5.44189 14.3174 5.73444C14.4034 5.95501 14.5051 6.28716 14.5329 6.89807C14.5633 7.55911 14.5694 7.75697 14.5694 9.4303C14.5694 11.1036 14.5633 11.3015 14.5329 11.9625C14.5051 12.5735 14.4028 12.9055 14.3174 13.1262C14.2035 13.4187 14.0678 13.6274 13.8487 13.8464C13.6295 14.0654 13.4205 14.2012 13.1279 14.3151C12.9074 14.4011 12.5752 14.5029 11.9643 14.5307C11.3038 14.561 11.1054 14.5671 9.43206 14.5671C7.75872 14.5671 7.56087 14.561 6.90058 14.5307M6.84869 3.20201C6.18164 3.23239 5.72582 3.33816 5.32775 3.49305C4.91575 3.65301 4.5665 3.86761 4.21776 4.21581C3.86902 4.564 3.65497 4.91329 3.49501 5.3258C3.34011 5.72412 3.23434 6.17968 3.20396 6.84674C3.17308 7.51485 3.16602 7.72845 3.16602 9.4301C3.16602 11.1318 3.17308 11.3454 3.20396 12.0135C3.23434 12.6806 3.34011 13.1361 3.49501 13.5344C3.65497 13.9464 3.86907 14.2964 4.21776 14.6444C4.56645 14.9924 4.91524 15.2067 5.32775 15.3672C5.72657 15.522 6.18164 15.6278 6.84869 15.6582C7.51716 15.6886 7.7304 15.6961 9.43206 15.6961C11.1337 15.6961 11.3473 15.6891 12.0154 15.6582C12.6825 15.6278 13.138 15.522 13.5364 15.3672C13.9484 15.2067 14.2976 14.9926 14.6464 14.6444C14.9951 14.2962 15.2087 13.9464 15.3691 13.5344C15.524 13.1361 15.6303 12.6805 15.6602 12.0135C15.6905 11.3449 15.6976 11.1318 15.6976 9.4301C15.6976 7.72845 15.6905 7.51485 15.6602 6.84674C15.6298 6.17963 15.524 5.72387 15.3691 5.3258C15.2087 4.91379 14.9945 4.56455 14.6464 4.21581C14.2982 3.86706 13.9484 3.65301 13.5369 3.49305C13.138 3.33816 12.6825 3.23189 12.0159 3.20201C11.3477 3.17148 11.1342 3.16406 9.43281 3.16406C7.7314 3.16406 7.51741 3.17113 6.84894 3.20201" fill="white"/>
</g>
<defs>
<radialGradient id="paint0_radial_4318_56501" cx="0" cy="0" r="1" gradientUnits="userSpaceOnUse" gradientTransform="translate(1.22966 18.5838) scale(24.1229)">
<stop offset="0.09" stop-color="#FA8F21"/>
<stop offset="0.78" stop-color="#D82D7E"/>
</radialGradient>
</defs>
</svg>
