<svg width="16" height="4" viewBox="0 0 16 4" fill="none" xmlns="http://www.w3.org/2000/svg">
<g id="Icon">
<path d="M7.9987 2.83073C8.45894 2.83073 8.83203 2.45763 8.83203 1.9974C8.83203 1.53716 8.45894 1.16406 7.9987 1.16406C7.53846 1.16406 7.16536 1.53716 7.16536 1.9974C7.16536 2.45763 7.53846 2.83073 7.9987 2.83073Z" stroke="white" stroke-linecap="round" stroke-linejoin="round"/>
<path d="M13.832 2.83073C14.2923 2.83073 14.6654 2.45763 14.6654 1.9974C14.6654 1.53716 14.2923 1.16406 13.832 1.16406C13.3718 1.16406 12.9987 1.53716 12.9987 1.9974C12.9987 2.45763 13.3718 2.83073 13.832 2.83073Z" stroke="white" stroke-linecap="round" stroke-linejoin="round"/>
<path d="M2.16536 2.83073C2.6256 2.83073 2.9987 2.45763 2.9987 1.9974C2.9987 1.53716 2.6256 1.16406 2.16536 1.16406C1.70513 1.16406 1.33203 1.53716 1.33203 1.9974C1.33203 2.45763 1.70513 2.83073 2.16536 2.83073Z" stroke="white" stroke-linecap="round" stroke-linejoin="round"/>
</g>
</svg>
