<svg width="20" height="20" viewBox="0 0 20 20" fill="none" xmlns="http://www.w3.org/2000/svg">
<g clip-path="url(#clip0_450_29090)">
<path d="M18.81 6.12C18.57 5.98 18.26 6.07 18.13 6.31L17.54 7.35C16.43 4.2 13.4 2 10 2C5.59 2 2 5.59 2 10C2 14.41 5.59 18 10 18C10.28 18 10.5 17.78 10.5 17.5C10.5 17.22 10.28 17 10 17C6.14 17 3 13.86 3 10C3 6.14 6.14 3 10 3C12.99 3 15.64 4.96 16.6 7.74L15.41 7.06C15.17 6.92 14.86 7.01 14.73 7.25C14.59 7.49 14.68 7.8 14.92 7.93L17.09 9.16C17.33 9.3 17.64 9.21 17.77 8.97L19 6.8C19.14 6.56 19.05 6.25 18.81 6.12Z" fill="#D9D9D9"/>
<path d="M18.81 6.12C18.57 5.98 18.26 6.07 18.13 6.31L17.54 7.35C16.43 4.2 13.4 2 10 2C5.59 2 2 5.59 2 10C2 14.41 5.59 18 10 18C10.28 18 10.5 17.78 10.5 17.5C10.5 17.22 10.28 17 10 17C6.14 17 3 13.86 3 10C3 6.14 6.14 3 10 3C12.99 3 15.64 4.96 16.6 7.74L15.41 7.06C15.17 6.92 14.86 7.01 14.73 7.25C14.59 7.49 14.68 7.8 14.92 7.93L17.09 9.16C17.33 9.3 17.64 9.21 17.77 8.97L19 6.8C19.14 6.56 19.05 6.25 18.81 6.12Z" fill="#D9D9D9"/>
<path d="M12.9 12.9937C12.78 12.9937 12.67 12.9537 12.57 12.8737L9.67 10.3737C9.56 10.2837 9.5 10.1437 9.5 9.99375V5.09375C9.5 4.81375 9.72 4.59375 10 4.59375C10.28 4.59375 10.5 4.81375 10.5 5.09375V9.77375L13.22 12.1237C13.43 12.3037 13.45 12.6237 13.27 12.8337C13.17 12.9437 13.03 13.0037 12.89 13.0037L12.9 12.9937Z" fill="#D9D9D9"/>
</g>
<g clip-path="url(#clip1_450_29090)">
<path d="M12.4984 17.9151C12.2884 17.9151 12.0984 17.7851 12.0284 17.5851C11.9384 17.3251 12.0684 17.0351 12.3284 16.9451L12.4584 16.8951C12.7184 16.7951 13.0084 16.9251 13.0984 17.1851C13.1984 17.4451 13.0684 17.7351 12.8084 17.8251L12.6684 17.8751C12.6084 17.8951 12.5584 17.9051 12.4984 17.9051V17.9151ZM14.8784 16.5251C14.7384 16.5251 14.5984 16.4651 14.4984 16.3551C14.3184 16.1451 14.3384 15.8351 14.5484 15.6451L14.6484 15.5551C14.8484 15.3651 15.1684 15.3851 15.3584 15.5951C15.5484 15.7951 15.5284 16.1151 15.3184 16.3051L15.1984 16.4051C15.1084 16.4851 14.9884 16.5251 14.8684 16.5251H14.8784ZM16.5984 14.3751C16.5184 14.3751 16.4384 14.3551 16.3684 14.3151C16.1284 14.1851 16.0284 13.8851 16.1584 13.6351L16.2184 13.5151C16.3484 13.2651 16.6484 13.1751 16.8884 13.2951C17.1384 13.4251 17.2284 13.7251 17.1084 13.9651L17.0384 14.1051C16.9484 14.2751 16.7784 14.3751 16.5984 14.3751ZM17.4284 11.7451C17.4284 11.7451 17.3884 11.7451 17.3684 11.7451C17.0984 11.7151 16.8984 11.4651 16.9284 11.1851V11.0451C16.9684 10.7751 17.2184 10.5751 17.4884 10.5951C17.7584 10.6251 17.9684 10.8651 17.9384 11.1451L17.9184 11.3051C17.8884 11.5551 17.6684 11.7451 17.4184 11.7451H17.4284Z" fill="#D9D9D9"/>
</g>
<defs>
<clipPath id="clip0_450_29090">
<rect width="17.07" height="16" fill="white" transform="translate(2 2)"/>
</clipPath>
<clipPath id="clip1_450_29090">
<rect width="5.94" height="7.31" fill="white" transform="translate(12 10.6016)"/>
</clipPath>
</defs>
</svg>
