<svg width="18" height="18" viewBox="0 0 18 18" fill="none" xmlns="http://www.w3.org/2000/svg">
<g id="Vector">
<g id="Group_1622">
<path id="Vector-61" fill-rule="evenodd" clip-rule="evenodd" d="M0.601562 7.80156V10.2016C0.601563 14.178 3.82511 17.4016 7.80156 17.4016H10.2016C14.178 17.4016 17.4016 14.178 17.4016 10.2016V7.80156C17.4016 3.82511 14.178 0.601563 10.2016 0.601562H7.80156C3.82511 0.601562 0.601563 3.82511 0.601562 7.80156Z" stroke="#4B4B4B" stroke-width="0.8" stroke-linecap="round" stroke-linejoin="round"/>
<g id="Vector-62">
<path fill-rule="evenodd" clip-rule="evenodd" d="M9.00234 9V13.8Z" fill="#4B4B4B"/>
<path d="M9.00234 9V13.8" stroke="#4B4B4B" stroke-width="1.5" stroke-linecap="round"/>
</g>
<g id="Vector-63">
<path id="Path" d="M9.00234 6.00469C8.6715 6.00469 8.40234 5.73553 8.40234 5.40469C8.40234 5.07385 8.6715 4.80469 9.00234 4.80469C9.33318 4.80469 9.60234 5.07385 9.60234 5.40469C9.60234 5.73553 9.33318 6.00469 9.00234 6.00469Z" fill="#4B4B4B"/>
<path id="Path_2" d="M9.00078 4.20312C9.66352 4.20312 10.2008 4.74039 10.2008 5.40313C10.2008 6.06586 9.66352 6.60313 9.00078 6.60313C8.33805 6.60313 7.80078 6.06586 7.80078 5.40313C7.80078 4.74039 8.33805 4.20312 9.00078 4.20312Z" fill="#4B4B4B"/>
</g>
</g>
</g>
</svg>
