<svg width="20" height="20" viewBox="0 0 20 20" fill="none" xmlns="http://www.w3.org/2000/svg">
<g clip-path="url(#clip0_3891_50322)">
<path d="M16.8744 3.45268H13.3327V2.27382C13.3327 1.94049 13.0494 1.66406 12.7077 1.66406C12.366 1.66406 12.0827 1.94049 12.0827 2.27382V3.45268H7.91602V2.27382C7.91602 1.94049 7.63268 1.66406 7.29102 1.66406C6.94935 1.66406 6.66602 1.94049 6.66602 2.27382V3.45268H3.12435C2.31602 3.45268 1.66602 4.09496 1.66602 4.87544V16.8998C1.66602 17.6885 2.32435 18.3226 3.12435 18.3226H16.866C17.6744 18.3226 18.3244 17.6803 18.3244 16.8998V4.87544C18.3244 4.08683 17.666 3.45268 16.866 3.45268H16.8744ZM17.0827 16.908C17.0827 17.0218 16.991 17.1112 16.8744 17.1112H3.12435C3.00768 17.1112 2.91602 17.0218 2.91602 16.908V8.29821H17.0827V16.908ZM17.0827 7.0787H2.91602V4.88357C2.91602 4.76975 3.00768 4.68032 3.12435 4.68032H6.66602V5.53398C6.66602 5.86731 6.94935 6.14374 7.29102 6.14374C7.63268 6.14374 7.91602 5.86731 7.91602 5.53398V4.68032H12.0827V5.53398C12.0827 5.86731 12.366 6.14374 12.7077 6.14374C13.0494 6.14374 13.3327 5.86731 13.3327 5.53398V4.68032H16.8744C16.991 4.68032 17.0827 4.76975 17.0827 4.88357V7.0787Z" fill="#848484"/>
</g>
<defs>
<clipPath id="clip0_3891_50322">
<rect width="16.6667" height="16.6667" fill="white" transform="translate(1.66602 1.66406)"/>
</clipPath>
</defs>
</svg>
