<svg width="24" height="24" viewBox="0 0 24 24" fill="none" xmlns="http://www.w3.org/2000/svg">
<g clip-path="url(#clip0_450_22641)">
<path d="M12 22C17.5228 22 22 17.5228 22 12C22 6.47715 17.5228 2 12 2C6.47715 2 2 6.47715 2 12C2 17.5228 6.47715 22 12 22Z" fill="#DF445D"/>
<path d="M18.62 6.83906C18.66 6.42906 18.37 6.05906 17.95 6.00906C17.54 5.95906 17.17 6.25906 17.12 6.67906L17.06 7.25906C15.76 5.86906 13.92 5.03906 11.97 5.03906C8.12 5.03906 5 8.16906 5 12.0091C5 15.8491 8.13 18.9791 11.97 18.9791C14.58 18.9791 16.96 17.5391 18.16 15.2191C18.35 14.8491 18.21 14.3991 17.84 14.2091C17.47 14.0191 17.02 14.1591 16.83 14.5291C15.88 16.3491 14.02 17.4791 11.97 17.4791C8.95 17.4791 6.5 15.0191 6.5 12.0091C6.5 8.99906 8.96 6.53906 11.97 6.53906C13.54 6.53906 15.01 7.21906 16.04 8.36906L15.19 8.27906C14.78 8.23906 14.41 8.52906 14.36 8.94906C14.32 9.35906 14.61 9.72906 15.03 9.77906L17.52 10.0491C17.52 10.0491 17.57 10.0491 17.6 10.0491C17.98 10.0491 18.3 9.75906 18.34 9.37906C18.34 9.37906 18.34 9.36906 18.34 9.35906C18.34 9.35906 18.34 9.34906 18.34 9.33906L18.61 6.84906L18.62 6.83906Z" fill="white"/>
</g>
<defs>
<clipPath id="clip0_450_22641">
<rect width="20" height="20" fill="white" transform="translate(2 2)"/>
</clipPath>
</defs>
</svg>
