<svg width="14" height="14" viewBox="0 0 14 14" fill="none" xmlns="http://www.w3.org/2000/svg">
<path fill-rule="evenodd" clip-rule="evenodd" d="M0.702707 3.57567L3.29365 1.25735V9.21008C3.29365 11.8512 5.69516 14 8.64682 14C11.5985 14 14 11.8512 14 9.21008V1.84099C14 1.6376 13.8163 1.47253 13.5882 1.47253C13.3609 1.47253 13.1764 1.6376 13.1764 1.84099V9.21008C13.1764 11.4451 11.1447 13.2631 8.64682 13.2631C6.14977 13.2631 4.11721 11.4451 4.11721 9.21008V1.25735L6.70897 3.57567C6.86957 3.71937 7.13064 3.71937 7.29123 3.57567C7.45183 3.43197 7.45183 3.19837 7.29123 3.05468L3.99779 0.107773C3.84461 -0.0359244 3.56625 -0.0359244 3.41389 0.107773L0.120446 3.05468C-0.0401488 3.19837 -0.0401488 3.43197 0.120446 3.57567C0.281042 3.71937 0.542112 3.71937 0.702707 3.57567Z" fill="#848484"/>
</svg>
