<svg width="20" height="20" viewBox="0 0 20 20" fill="none" xmlns="http://www.w3.org/2000/svg">
<path fill-rule="evenodd" clip-rule="evenodd" d="M3.33464 9.9974C3.33464 8.22929 4.03701 6.53359 5.28726 5.28335C6.5375 4.03311 8.23319 3.33073 10.0013 3.33073C11.7694 3.33073 13.4651 4.03311 14.7153 5.28335C15.9656 6.53359 16.668 8.22929 16.668 9.9974C16.668 11.7655 15.9656 13.4612 14.7153 14.7114C13.4651 15.9617 11.7694 16.6641 10.0013 16.6641C8.23319 16.6641 6.5375 15.9617 5.28726 14.7114C4.03701 13.4612 3.33464 11.7655 3.33464 9.9974ZM10.0013 1.66406C5.3988 1.66406 1.66797 5.3949 1.66797 9.9974C1.66797 14.5999 5.3988 18.3307 10.0013 18.3307C14.6038 18.3307 18.3346 14.5999 18.3346 9.9974C18.3346 5.3949 14.6038 1.66406 10.0013 1.66406ZM8.30714 12.2841C8.25164 12.0705 8.11372 11.8877 7.92363 11.7757C7.73353 11.6637 7.50678 11.6316 7.29309 11.6866C7.0794 11.7415 6.89622 11.879 6.78372 12.0688C6.67122 12.2586 6.63858 12.4852 6.69297 12.6991C7.0588 14.1641 8.57047 14.9974 10.0013 14.9974C11.4888 14.9974 12.878 14.1541 13.3096 12.6974C13.3589 12.4853 13.3232 12.2623 13.2101 12.0762C13.097 11.89 12.9156 11.7556 12.7046 11.7016C12.4937 11.6475 12.2699 11.6782 12.0813 11.7871C11.8927 11.896 11.7542 12.0744 11.6955 12.2841C11.4788 13.0091 10.7013 13.3307 10.0013 13.3307C9.3013 13.3307 8.52464 13.0099 8.30714 12.2841ZM8.7513 8.33073C8.7513 8.66225 8.61961 8.98019 8.38519 9.21461C8.15076 9.44903 7.83282 9.58073 7.5013 9.58073C7.16978 9.58073 6.85184 9.44903 6.61742 9.21461C6.383 8.98019 6.2513 8.66225 6.2513 8.33073C6.2513 7.99921 6.383 7.68127 6.61742 7.44685C6.85184 7.21242 7.16978 7.08073 7.5013 7.08073C7.83282 7.08073 8.15076 7.21242 8.38519 7.44685C8.61961 7.68127 8.7513 7.99921 8.7513 8.33073ZM12.5013 9.58073C12.8328 9.58073 13.1508 9.44903 13.3852 9.21461C13.6196 8.98019 13.7513 8.66225 13.7513 8.33073C13.7513 7.99921 13.6196 7.68127 13.3852 7.44685C13.1508 7.21242 12.8328 7.08073 12.5013 7.08073C12.1698 7.08073 11.8518 7.21242 11.6174 7.44685C11.383 7.68127 11.2513 7.99921 11.2513 8.33073C11.2513 8.66225 11.383 8.98019 11.6174 9.21461C11.8518 9.44903 12.1698 9.58073 12.5013 9.58073Z" fill="#D9D9D9"/>
<path d="M17.1423 4.28795C17.1423 5.07692 16.5027 5.71652 15.7137 5.71652C14.9247 5.71652 14.2852 5.07692 14.2852 4.28795C14.2852 3.49897 14.9247 2.85938 15.7137 2.85938C16.5027 2.85938 17.1423 3.49897 17.1423 4.28795Z" fill="#4B4B4B" stroke="#4B4B4B" stroke-width="2"/>
<rect x="12.8805" y="1.45469" width="5.66429" height="5.66429" fill="#4B4B4B"/>
<path d="M15.7135 2.61719V5.95052M14.0469 4.28385H17.3802" stroke="#D9D9D9" stroke-width="0.5" stroke-linecap="round" stroke-linejoin="round"/>
<rect x="12.8805" y="1.45469" width="5.66429" height="5.66429" stroke="#4B4B4B" stroke-width="0.05"/>
</svg>
