<svg width="20" height="20" viewBox="0 0 20 20" fill="none" xmlns="http://www.w3.org/2000/svg">
<g clip-path="url(#clip0_995_3847)">
<path d="M9.98125 10.4104C7.11125 10.4104 4.78125 8.07808 4.78125 5.2052C4.78125 2.33233 7.11125 0 9.98125 0C12.8512 0 15.1812 2.33233 15.1812 5.2052C15.1812 8.07808 12.8512 10.4104 9.98125 10.4104ZM9.98125 1.5015C7.94125 1.5015 6.28125 3.16316 6.28125 5.2052C6.28125 7.24725 7.94125 8.90891 9.98125 8.90891C12.0212 8.90891 13.6812 7.24725 13.6812 5.2052C13.6812 3.16316 12.0212 1.5015 9.98125 1.5015Z" fill="white"/>
<path d="M19.9657 19.2517C20.0036 19.6641 19.6642 20.0012 19.25 20.0012C18.8358 20.0012 18.5044 19.6642 18.458 19.2526C18.0312 15.4675 14.4035 12.4937 10 12.4937C5.59653 12.4937 1.96882 15.4675 1.54199 19.2526C1.49558 19.6642 1.16421 20.0012 0.75 20.0012C0.335786 20.0012 -0.00360787 19.6641 0.0343433 19.2517C0.459067 14.6356 4.77006 10.9922 10 10.9922C15.2299 10.9922 19.5409 14.6356 19.9657 19.2517Z" fill="white"/>
</g>
<defs>
<clipPath id="clip0_995_3847">
<rect width="20" height="20" fill="white"/>
</clipPath>
</defs>
</svg>
