<svg width="24" height="24" viewBox="0 0 24 24" fill="none" xmlns="http://www.w3.org/2000/svg">
<g id="Icon">
<g id="Icon_2">
<path fill-rule="evenodd" clip-rule="evenodd" d="M0.296035 11.852C0.296035 5.30631 5.60235 0 12.148 0C18.6937 0 24 5.30631 24 11.852C24 18.3977 18.6937 23.704 12.148 23.704C10.3457 23.704 8.63487 23.301 7.10299 22.5794L0 24L1.4206 16.897C0.699033 15.3651 0.296035 13.6543 0.296035 11.852ZM12.1466 12.9294C12.1466 12.9294 6.79247 12.9294 12.148 12.9294H12.1466C12.1466 12.9294 12.3907 12.9294 12.148 12.9294C12.1466 12.9294 12.1466 12.9294 12.1466 12.9294C12.148 12.9294 12.1466 12.9294 17.5339 12.9294Z" fill="white"/>
<path d="M6.75933 8.61962H17.5339V10.7745H6.75933V8.61962Z" fill="#27292A"/>
<path d="M6.75933 12.9294H12.1466V15.0843H6.75933V12.9294Z" fill="#27292A"/>
</g>
</g>
</svg>
