<svg width="28" height="28" viewBox="0 0 28 28" fill="none" xmlns="http://www.w3.org/2000/svg">
<g id="fi-rr-ticket" clip-path="url(#clip0_3874_50482)">
<path id="Vector" d="M0 9.33333L0 9.485C0.00496045 10.0071 0.183182 10.5128 0.506683 10.9227C0.830183 11.3326 1.28064 11.6234 1.78733 11.7495C2.28064 11.8846 2.71591 12.178 3.02616 12.5846C3.33642 12.9912 3.50447 13.4885 3.50447 14C3.50447 14.5115 3.33642 15.0088 3.02616 15.4154C2.71591 15.822 2.28064 16.1154 1.78733 16.2505C1.28064 16.3766 0.830183 16.6674 0.506683 17.0773C0.183182 17.4872 0.00496045 17.9929 0 18.515L0 18.6667C0.0018525 20.2132 0.617029 21.6958 1.71059 22.7894C2.80415 23.883 4.28681 24.4981 5.83333 24.5L24.5 24.5C25.4283 24.5 26.3185 24.1313 26.9749 23.4749C27.6313 22.8185 28 21.9283 28 21V18.515C27.995 17.9929 27.8168 17.4872 27.4933 17.0773C27.1698 16.6674 26.7194 16.3766 26.2127 16.2505C25.7194 16.1154 25.2841 15.822 24.9738 15.4154C24.6636 15.0088 24.4955 14.5115 24.4955 14C24.4955 13.4885 24.6636 12.9912 24.9738 12.5846C25.2841 12.178 25.7194 11.8846 26.2127 11.7495C26.7194 11.6234 27.1698 11.3326 27.4933 10.9227C27.8168 10.5128 27.995 10.0071 28 9.485V7C28 6.07174 27.6313 5.1815 26.9749 4.52513C26.3185 3.86875 25.4283 3.5 24.5 3.5L5.83333 3.5C4.28681 3.50185 2.80415 4.11703 1.71059 5.21059C0.617029 6.30415 0.0018525 7.78681 0 9.33333H0ZM25.6667 7L25.5932 9.50017C24.6032 9.77419 23.7312 10.3672 23.1126 11.1873C22.4939 12.0073 22.1631 13.0086 22.1715 14.0358C22.1799 15.063 22.527 16.0587 23.1589 16.8686C23.7908 17.6784 24.6723 18.2572 25.6667 18.515V21C25.6667 21.3094 25.5438 21.6062 25.325 21.825C25.1062 22.0438 24.8094 22.1667 24.5 22.1667H19.8333V19.8333C19.8333 19.5239 19.7104 19.2272 19.4916 19.0084C19.2728 18.7896 18.9761 18.6667 18.6667 18.6667C18.3572 18.6667 18.0605 18.7896 17.8417 19.0084C17.6229 19.2272 17.5 19.5239 17.5 19.8333V22.1667L5.83333 22.1667C4.90508 22.1667 4.01484 21.7979 3.35846 21.1415C2.70208 20.4852 2.33333 19.5949 2.33333 18.6667L2.40683 18.4998C3.39083 18.2266 4.25839 17.6388 4.87708 16.8263C5.49577 16.0139 5.83161 15.0212 5.83333 14C5.82453 12.965 5.47785 11.9612 4.84606 11.1413C4.21426 10.3215 3.33194 9.73043 2.33333 9.45817V9.33333C2.33333 8.40508 2.70208 7.51484 3.35846 6.85846C4.01484 6.20208 4.90508 5.83333 5.83333 5.83333L17.5 5.83333V8.16667C17.5 8.47609 17.6229 8.77283 17.8417 8.99163C18.0605 9.21042 18.3572 9.33333 18.6667 9.33333C18.9761 9.33333 19.2728 9.21042 19.4916 8.99163C19.7104 8.77283 19.8333 8.47609 19.8333 8.16667V5.83333H24.5C24.8094 5.83333 25.1062 5.95625 25.325 6.17504C25.5438 6.39384 25.6667 6.69058 25.6667 7Z" fill="white"/>
<path id="Vector_2" d="M17.5 12.8359V15.1693C17.5 15.4787 17.6229 15.7754 17.8417 15.9942C18.0605 16.213 18.3573 16.3359 18.6667 16.3359C18.9761 16.3359 19.2728 16.213 19.4916 15.9942C19.7104 15.7754 19.8333 15.4787 19.8333 15.1693V12.8359C19.8333 12.5265 19.7104 12.2298 19.4916 12.011C19.2728 11.7922 18.9761 11.6693 18.6667 11.6693C18.3573 11.6693 18.0605 11.7922 17.8417 12.011C17.6229 12.2298 17.5 12.5265 17.5 12.8359Z" fill="white"/>
</g>
<defs>
<clipPath id="clip0_3874_50482">
<rect width="28" height="28" fill="white" transform="matrix(0 -1 1 0 0 28)"/>
</clipPath>
</defs>
</svg>
