<svg width="20" height="20" viewBox="0 0 20 20" fill="none" xmlns="http://www.w3.org/2000/svg">
<g id="01 align center">
<path id="Vector" d="M17.5 0H2.5C1.83696 0 1.20107 0.263392 0.732233 0.732233C0.263392 1.20107 0 1.83696 0 2.5L0 20H20V2.5C20 1.83696 19.7366 1.20107 19.2678 0.732233C18.7989 0.263392 18.163 0 17.5 0V0ZM2.5 1.66667H17.5C17.721 1.66667 17.933 1.75446 18.0893 1.91074C18.2455 2.06702 18.3333 2.27899 18.3333 2.5V17.155L9.2675 8.08917C8.79868 7.62049 8.16291 7.3572 7.5 7.3572C6.83709 7.3572 6.20132 7.62049 5.7325 8.08917L1.66667 12.155V2.5C1.66667 2.27899 1.75446 2.06702 1.91074 1.91074C2.06702 1.75446 2.27899 1.66667 2.5 1.66667ZM1.66667 14.5117L6.91083 9.2675C7.06711 9.11127 7.27903 9.02351 7.5 9.02351C7.72097 9.02351 7.93289 9.11127 8.08917 9.2675L17.155 18.3333H1.66667V14.5117Z" fill="#D9D9D9"/>
<path id="Vector_2" d="M13.332 8.33594C13.8265 8.33594 14.3098 8.18932 14.721 7.91461C15.1321 7.63991 15.4525 7.24946 15.6417 6.79265C15.8309 6.33583 15.8805 5.83317 15.784 5.34821C15.6875 4.86326 15.4494 4.4178 15.0998 4.06817C14.7502 3.71854 14.3047 3.48044 13.8198 3.38398C13.3348 3.28751 12.8321 3.33702 12.3753 3.52624C11.9185 3.71546 11.5281 4.03589 11.2534 4.44701C10.9787 4.85814 10.832 5.34149 10.832 5.83594C10.832 6.49898 11.0954 7.13486 11.5643 7.60371C12.0331 8.07255 12.669 8.33594 13.332 8.33594ZM13.332 5.00261C13.4968 5.00261 13.658 5.05148 13.795 5.14305C13.932 5.23462 14.0389 5.36476 14.1019 5.51704C14.165 5.66931 14.1815 5.83686 14.1494 5.99851C14.1172 6.16016 14.0378 6.30865 13.9213 6.42519C13.8047 6.54174 13.6563 6.62111 13.4946 6.65326C13.333 6.68541 13.1654 6.66891 13.0131 6.60584C12.8609 6.54277 12.7307 6.43595 12.6391 6.29891C12.5476 6.16187 12.4987 6.00076 12.4987 5.83594C12.4987 5.61492 12.5865 5.40296 12.7428 5.24668C12.8991 5.0904 13.111 5.00261 13.332 5.00261Z" fill="#D9D9D9"/>
</g>
</svg>
