<svg width="18" height="18" viewBox="0 0 18 18" fill="none" xmlns="http://www.w3.org/2000/svg">
<g id="ClockCounterClockwise">
<path id="Vector" d="M9 5.625V9" stroke="#D9D9D9" stroke-width="1.5" stroke-linecap="round" stroke-linejoin="round"/>
<path id="Vector_2" d="M11.925 10.6875L9 9" stroke="#D9D9D9" stroke-width="1.5" stroke-linecap="round" stroke-linejoin="round"/>
<path id="Vector_3" d="M5.04688 7.00781H2.23438V4.19531" stroke="#D9D9D9" stroke-width="1.5" stroke-linecap="round" stroke-linejoin="round"/>
<path id="Vector_4" d="M4.625 13.3734C5.49014 14.2393 6.59263 14.8291 7.79303 15.0682C8.99343 15.3074 10.2378 15.1852 11.3687 14.717C12.4996 14.2488 13.4663 13.4558 14.1464 12.4381C14.8265 11.4205 15.1895 10.224 15.1895 9C15.1895 7.77602 14.8265 6.57953 14.1464 5.56189C13.4663 4.54425 12.4996 3.75118 11.3687 3.28302C10.2378 2.81485 8.99343 2.69261 7.79303 2.93176C6.59263 3.17092 5.49014 3.76072 4.625 4.62657L2.23438 7.01016" stroke="#D9D9D9" stroke-width="1.5" stroke-linecap="round" stroke-linejoin="round"/>
</g>
</svg>
