<svg width="18" height="16" viewBox="0 0 18 16" fill="none" xmlns="http://www.w3.org/2000/svg">
<g id="Component 7">
<g id="Vector">
<mask id="path-1-inside-1_1756_30413" fill="white">
<path d="M7.14327 0.500258C7.05813 0.497811 6.97339 0.512791 6.89425 0.544278C6.81511 0.575766 6.74325 0.623097 6.68306 0.683364C6.56587 0.800572 6.50004 0.959528 6.50004 1.12527C6.50004 1.29101 6.56587 1.44997 6.68306 1.56718L8.11619 3.0003H5.25C2.496 3.0003 0.25 5.2463 0.25 8.0003C0.25 10.7543 2.496 13.0003 5.25 13.0003H5.875C6.04076 13.0003 6.19973 12.9345 6.31694 12.8172C6.43415 12.7 6.5 12.5411 6.5 12.3753C6.5 12.2095 6.43415 12.0506 6.31694 11.9334C6.19973 11.8161 6.04076 11.7503 5.875 11.7503H5.25C3.1715 11.7503 1.5 10.0788 1.5 8.0003C1.5 5.9218 3.1715 4.2503 5.25 4.2503H8.11619L6.68306 5.68343C6.56587 5.80063 6.50004 5.95959 6.50004 6.12533C6.50004 6.29108 6.56587 6.45003 6.68306 6.56724C6.80027 6.68443 6.95922 6.75026 7.12497 6.75026C7.29071 6.75026 7.44967 6.68443 7.56687 6.56724L10.0669 4.06724C10.184 3.95002 10.2499 3.79107 10.2499 3.62533C10.2499 3.4596 10.184 3.30064 10.0669 3.18343L7.56687 0.683427C7.45421 0.570593 7.30265 0.505026 7.14327 0.500258Z"/>
</mask>
<path d="M7.14327 0.500258C7.05813 0.497811 6.97339 0.512791 6.89425 0.544278C6.81511 0.575766 6.74325 0.623097 6.68306 0.683364C6.56587 0.800572 6.50004 0.959528 6.50004 1.12527C6.50004 1.29101 6.56587 1.44997 6.68306 1.56718L8.11619 3.0003H5.25C2.496 3.0003 0.25 5.2463 0.25 8.0003C0.25 10.7543 2.496 13.0003 5.25 13.0003H5.875C6.04076 13.0003 6.19973 12.9345 6.31694 12.8172C6.43415 12.7 6.5 12.5411 6.5 12.3753C6.5 12.2095 6.43415 12.0506 6.31694 11.9334C6.19973 11.8161 6.04076 11.7503 5.875 11.7503H5.25C3.1715 11.7503 1.5 10.0788 1.5 8.0003C1.5 5.9218 3.1715 4.2503 5.25 4.2503H8.11619L6.68306 5.68343C6.56587 5.80063 6.50004 5.95959 6.50004 6.12533C6.50004 6.29108 6.56587 6.45003 6.68306 6.56724C6.80027 6.68443 6.95922 6.75026 7.12497 6.75026C7.29071 6.75026 7.44967 6.68443 7.56687 6.56724L10.0669 4.06724C10.184 3.95002 10.2499 3.79107 10.2499 3.62533C10.2499 3.4596 10.184 3.30064 10.0669 3.18343L7.56687 0.683427C7.45421 0.570593 7.30265 0.505026 7.14327 0.500258Z" fill="#4B4B4B"/>
<path d="M7.14327 0.500258L7.29277 -4.49751L7.28694 -4.49768L7.14327 0.500258ZM6.68306 0.683364L10.2189 4.21861L10.221 4.21645L6.68306 0.683364ZM6.68306 1.56718L3.14724 5.10243L3.14753 5.10271L6.68306 1.56718ZM8.11619 3.0003V8.0003H20.1873L11.6517 -0.535233L8.11619 3.0003ZM8.11619 4.2503L11.6517 7.78584L20.1873 -0.749698H8.11619V4.2503ZM6.68306 5.68343L3.14753 2.14789L3.14724 2.14818L6.68306 5.68343ZM6.68306 6.56724L3.14724 10.1025L3.14781 10.1031L6.68306 6.56724ZM7.56687 6.56724L11.1021 10.1031L11.1024 10.1028L7.56687 6.56724ZM10.0669 4.06724L13.6024 7.60277L13.603 7.60214L10.0669 4.06724ZM10.2499 3.62533L15.2499 3.62533L10.2499 3.62533ZM10.0669 3.18343L13.603 -0.35147L13.6024 -0.352107L10.0669 3.18343ZM7.56687 0.683427L4.02872 4.21634L4.03134 4.21896L7.56687 0.683427ZM7.28694 -4.49768C6.5207 -4.5197 5.75805 -4.38489 5.0458 -4.1015L8.74271 5.19005C8.18873 5.41047 7.59556 5.51533 6.9996 5.49819L7.28694 -4.49768ZM5.0458 -4.1015C4.33354 -3.8181 3.68673 -3.39212 3.14508 -2.84972L10.221 4.21645C9.79976 4.63832 9.29669 4.96964 8.74271 5.19005L5.0458 -4.1015ZM3.14724 -2.85189C2.09255 -1.79703 1.50004 -0.366425 1.50004 1.12527H11.5C11.5 2.28548 11.0392 3.39817 10.2189 4.21861L3.14724 -2.85189ZM1.50004 1.12527C1.50004 2.61697 2.09255 4.04757 3.14724 5.10243L10.2189 -1.96807C11.0392 -1.14763 11.5 -0.0349395 11.5 1.12527H1.50004ZM3.14753 5.10271L4.58065 6.53584L11.6517 -0.535233L10.2186 -1.96836L3.14753 5.10271ZM8.11619 -1.9997H5.25V8.0003H8.11619V-1.9997ZM5.25 -1.9997C-0.265425 -1.9997 -4.75 2.48488 -4.75 8.0003H5.25L5.25 8.0003V-1.9997ZM-4.75 8.0003C-4.75 13.5157 -0.265424 18.0003 5.25 18.0003V8.0003L5.25 8.0003H-4.75ZM5.25 18.0003H5.875V8.0003H5.25V18.0003ZM5.875 18.0003C7.36686 18.0003 8.79759 17.4077 9.85248 16.3528L2.78141 9.28171C3.60187 8.46125 4.71466 8.0003 5.875 8.0003V18.0003ZM9.85248 16.3528C10.9074 15.2979 11.5 13.8672 11.5 12.3753H1.5C1.5 11.215 1.96094 10.1022 2.78141 9.28171L9.85248 16.3528ZM11.5 12.3753C11.5 10.8835 10.9074 9.45272 9.85248 8.39783L2.78141 15.4689C1.96093 14.6484 1.5 13.5356 1.5 12.3753H11.5ZM9.85248 8.39783C8.79758 7.34293 7.36683 6.7503 5.875 6.7503V16.7503C4.71469 16.7503 3.60188 16.2894 2.78141 15.4689L9.85248 8.39783ZM5.875 6.7503H5.25V16.7503H5.875V6.7503ZM5.25 6.7503C5.93292 6.7503 6.5 7.31738 6.5 8.0003H-3.5C-3.5 12.8402 0.410077 16.7503 5.25 16.7503V6.7503ZM6.5 8.0003C6.5 8.68322 5.93292 9.2503 5.25 9.2503V-0.749698C0.410075 -0.749698 -3.5 3.16038 -3.5 8.0003H6.5ZM5.25 9.2503H8.11619V-0.749698H5.25V9.2503ZM4.58065 0.714768L3.14753 2.14789L10.2186 9.21896L11.6517 7.78584L4.58065 0.714768ZM3.14724 2.14818C2.09255 3.20304 1.50004 4.63364 1.50004 6.12533H11.5C11.5 7.28554 11.0392 8.39823 10.2189 9.21868L3.14724 2.14818ZM1.50004 6.12533C1.50004 7.61703 2.09256 9.04763 3.14724 10.1025L10.2189 3.03199C11.0392 3.85243 11.5 4.96512 11.5 6.12533H1.50004ZM3.14781 10.1031C4.20267 11.1577 5.63327 11.7503 7.12497 11.7503V1.75026C8.28518 1.75026 9.39787 2.21111 10.2183 3.03142L3.14781 10.1031ZM7.12497 11.7503C8.61666 11.7503 10.0473 11.1577 11.1021 10.1031L4.03162 3.03142C4.85207 2.21111 5.96476 1.75026 7.12497 1.75026V11.7503ZM11.1024 10.1028L13.6024 7.60277L6.53134 0.531705L4.03134 3.03171L11.1024 10.1028ZM13.603 7.60214C14.6575 6.54729 15.2499 5.11685 15.2499 3.62533L5.24987 3.62533C5.24987 2.4653 5.71059 1.35275 6.5307 0.532343L13.603 7.60214ZM15.2499 3.62533C15.2499 2.13383 14.6575 0.703376 13.603 -0.35147L6.5307 6.71832C5.71058 5.89791 5.24987 4.78537 5.24987 3.62533L15.2499 3.62533ZM13.6024 -0.352107L11.1024 -2.85211L4.03134 4.21896L6.53134 6.71896L13.6024 -0.352107ZM11.105 -2.84949C10.0918 -3.86422 8.72829 -4.45456 7.29277 -4.49751L6.99377 5.49802C5.87701 5.46462 4.81662 5.00541 4.02872 4.21634L11.105 -2.84949Z" fill="#4B4B4B" mask="url(#path-1-inside-1_1756_30413)"/>
</g>
<g id="Vector_2">
<mask id="path-3-inside-2_1756_30413" fill="white">
<path d="M12.1248 3.00006C11.9591 3.00006 11.8001 3.06591 11.6829 3.18312C11.5657 3.30033 11.4998 3.4593 11.4998 3.62506C11.4998 3.79082 11.5657 3.94979 11.6829 4.067C11.8001 4.18421 11.9591 4.25006 12.1248 4.25006H12.7498C14.8283 4.25006 16.4998 5.92156 16.4998 8.00006C16.4998 10.0786 14.8283 11.7501 12.7498 11.7501H9.88366L11.3168 10.3169C11.434 10.1997 11.4998 10.0408 11.4998 9.87503C11.4998 9.70929 11.434 9.55033 11.3168 9.43312C11.2041 9.32029 11.0526 9.25479 10.8932 9.25002C10.8081 9.24757 10.7233 9.26255 10.6442 9.29404C10.565 9.32553 10.4932 9.37286 10.433 9.43312L7.933 11.9331C7.81582 12.0503 7.75 12.2093 7.75 12.375C7.75 12.5408 7.81582 12.6997 7.933 12.8169L10.433 15.3169C10.5502 15.4341 10.7092 15.5 10.8749 15.5C11.0406 15.5 11.1996 15.4341 11.3168 15.3169C11.434 15.1997 11.4998 15.0408 11.4998 14.875C11.4998 14.7093 11.434 14.5503 11.3168 14.4331L9.88368 13H12.7499C15.5039 13 17.7499 10.754 17.7499 8C17.7499 5.246 15.5039 3 12.7499 3L12.1248 3.00006Z"/>
</mask>
<path d="M12.1248 3.00006C11.9591 3.00006 11.8001 3.06591 11.6829 3.18312C11.5657 3.30033 11.4998 3.4593 11.4998 3.62506C11.4998 3.79082 11.5657 3.94979 11.6829 4.067C11.8001 4.18421 11.9591 4.25006 12.1248 4.25006H12.7498C14.8283 4.25006 16.4998 5.92156 16.4998 8.00006C16.4998 10.0786 14.8283 11.7501 12.7498 11.7501H9.88366L11.3168 10.3169C11.434 10.1997 11.4998 10.0408 11.4998 9.87503C11.4998 9.70929 11.434 9.55033 11.3168 9.43312C11.2041 9.32029 11.0526 9.25479 10.8932 9.25002C10.8081 9.24757 10.7233 9.26255 10.6442 9.29404C10.565 9.32553 10.4932 9.37286 10.433 9.43312L7.933 11.9331C7.81582 12.0503 7.75 12.2093 7.75 12.375C7.75 12.5408 7.81582 12.6997 7.933 12.8169L10.433 15.3169C10.5502 15.4341 10.7092 15.5 10.8749 15.5C11.0406 15.5 11.1996 15.4341 11.3168 15.3169C11.434 15.1997 11.4998 15.0408 11.4998 14.875C11.4998 14.7093 11.434 14.5503 11.3168 14.4331L9.88368 13H12.7499C15.5039 13 17.7499 10.754 17.7499 8C17.7499 5.246 15.5039 3 12.7499 3L12.1248 3.00006Z" fill="#4B4B4B"/>
<path d="M12.1248 3.00006L12.1248 8.00006L12.1253 8.00006L12.1248 3.00006ZM9.88366 11.7501L6.34813 8.21453L-2.18741 16.7501H9.88366V11.7501ZM11.3168 10.3169L14.8523 13.8525L14.8526 13.8522L11.3168 10.3169ZM11.3168 9.43312L7.77863 12.966L7.78097 12.9684L11.3168 9.43312ZM10.8932 9.25002L11.0427 4.25225L11.0369 4.25208L10.8932 9.25002ZM10.433 9.43312L13.9685 12.9687L13.971 12.9662L10.433 9.43312ZM7.933 11.9331L4.39746 8.39759L4.39683 8.39823L7.933 11.9331ZM7.75 12.375L2.75 12.375L7.75 12.375ZM7.933 12.8169L4.39683 16.3518L4.39746 16.3525L7.933 12.8169ZM10.433 15.3169L6.89746 18.8525L6.89775 18.8528L10.433 15.3169ZM11.3168 15.3169L14.8521 18.8528L14.8526 18.8522L11.3168 15.3169ZM11.3168 14.4331L14.8526 10.8979L14.8523 10.8976L11.3168 14.4331ZM9.88368 13V8H-2.18738L6.34815 16.5355L9.88368 13ZM12.7499 3L12.7499 -2L12.7494 -2L12.7499 3ZM12.1248 -1.99994C10.633 -1.99994 9.20226 -1.40731 8.14737 -0.352413L15.2184 6.71865C14.398 7.53913 13.2852 8.00006 12.1248 8.00006L12.1248 -1.99994ZM8.14737 -0.352413C7.09247 0.702485 6.49985 2.13323 6.49985 3.62506H16.4998C16.4998 4.78538 16.0389 5.89818 15.2184 6.71865L8.14737 -0.352413ZM6.49985 3.62506C6.49985 5.1169 7.09247 6.54764 8.14737 7.60254L15.2184 0.53147C16.0389 1.35195 16.4998 2.46475 16.4998 3.62506H6.49985ZM8.14737 7.60254C9.20226 8.65743 10.633 9.25006 12.1248 9.25006V-0.749938C13.2852 -0.749938 14.398 -0.289003 15.2184 0.53147L8.14737 7.60254ZM12.1248 9.25006H12.7498V-0.749938H12.1248V9.25006ZM12.7498 9.25006C12.0669 9.25006 11.4998 8.68299 11.4998 8.00006H21.4998C21.4998 3.16014 17.5898 -0.749938 12.7498 -0.749938V9.25006ZM11.4998 8.00006C11.4998 7.31714 12.0669 6.75006 12.7498 6.75006V16.7501C17.5898 16.7501 21.4998 12.84 21.4998 8.00006H11.4998ZM12.7498 6.75006H9.88366V16.7501H12.7498V6.75006ZM13.4192 15.2856L14.8523 13.8525L7.78125 6.7814L6.34813 8.21453L13.4192 15.2856ZM14.8526 13.8522C15.9073 12.7973 16.4998 11.3667 16.4998 9.87503H6.49981C6.49981 8.71482 6.96065 7.60213 7.78097 6.78169L14.8526 13.8522ZM16.4998 9.87503C16.4998 8.38334 15.9073 6.95274 14.8526 5.89787L7.78097 12.9684C6.96065 12.1479 6.49981 11.0352 6.49981 9.87503H16.4998ZM14.8549 5.90021C13.8409 4.88471 12.4772 4.29516 11.0427 4.25225L10.7437 14.2478C9.62802 14.2144 8.56729 13.7559 7.77863 12.966L14.8549 5.90021ZM11.0369 4.25208C10.2706 4.23006 9.50796 4.36488 8.79573 4.64826L12.4926 13.9398C11.9387 14.1602 11.3455 14.2651 10.7495 14.248L11.0369 4.25208ZM8.79573 4.64826C8.08349 4.93165 7.43668 5.35763 6.89502 5.90004L13.971 12.9662C13.5497 13.3881 13.0466 13.7194 12.4926 13.9398L8.79573 4.64826ZM6.89746 5.89759L4.39746 8.39759L11.4685 15.4687L13.9685 12.9687L6.89746 5.89759ZM4.39683 8.39823C3.34236 9.45307 2.75 10.8835 2.75 12.375L12.75 12.375C12.75 13.5351 12.2893 14.6476 11.4692 15.468L4.39683 8.39823ZM2.75 12.375C2.75 13.8665 3.34236 15.297 4.39683 16.3518L11.4692 9.28204C12.2893 10.1025 12.75 11.215 12.75 12.375L2.75 12.375ZM4.39746 16.3525L6.89746 18.8525L13.9685 11.7814L11.4685 9.2814L4.39746 16.3525ZM6.89775 18.8528C7.95263 19.9075 9.38324 20.5 10.8749 20.5V10.5C12.0351 10.5 13.1478 10.9608 13.9682 11.7811L6.89775 18.8528ZM10.8749 20.5C12.3666 20.5 13.7972 19.9075 14.8521 18.8528L7.78156 11.7811C8.60203 10.9608 9.71473 10.5 10.8749 10.5V20.5ZM14.8526 18.8522C15.9073 17.7973 16.4998 16.3667 16.4998 14.875H6.49983C6.49983 13.7148 6.96067 12.6021 7.78099 11.7817L14.8526 18.8522ZM16.4998 14.875C16.4998 13.3833 15.9073 11.9527 14.8526 10.8979L7.78099 17.9684C6.96068 17.1479 6.49983 16.0352 6.49983 14.875H16.4998ZM14.8523 10.8976L13.4192 9.46447L6.34815 16.5355L7.78127 17.9687L14.8523 10.8976ZM9.88368 18H12.7499V8H9.88368V18ZM12.7499 18C18.2653 18 22.7499 13.5154 22.7499 8H12.7499V8V18ZM22.7499 8C22.7499 2.48458 18.2653 -2 12.7499 -2V8V8H22.7499ZM12.7494 -2L12.1243 -1.99994L12.1253 8.00006L12.7504 8L12.7494 -2Z" fill="#4B4B4B" mask="url(#path-3-inside-2_1756_30413)"/>
</g>
</g>
</svg>
