<svg width="20" height="20" viewBox="0 0 20 20" fill="none" xmlns="http://www.w3.org/2000/svg">
<g clip-path="url(#clip0_608_13510)">
<path d="M16.5 4H3.5C2.67 4 2 4.67 2 5.5V14.5C2 15.33 2.67 16 3.5 16H16.5C17.33 16 18 15.33 18 14.5V5.5C18 4.67 17.33 4 16.5 4ZM16.14 5L10 10.22L3.86 5H16.14ZM16.5 15H3.5C3.23 15 3 14.78 3 14.5V5.58L9.68 11.26C9.77 11.34 9.89 11.38 10 11.38C10.11 11.38 10.23 11.34 10.32 11.26L17 5.58V14.5C17 14.77 16.78 15 16.5 15Z" fill="#D9D9D9"/>
</g>
<defs>
<clipPath id="clip0_608_13510">
<rect width="16" height="12" fill="white" transform="translate(2 4)"/>
</clipPath>
</defs>
</svg>
