<svg width="21" height="21" viewBox="0 0 21 21" fill="none" xmlns="http://www.w3.org/2000/svg">
<g id="fi-rr-check" clip-path="url(#clip0_2313_39803)">
<path id="Vector" d="M19.5283 3.87469L7.43669 15.9654C7.35539 16.0471 7.25878 16.1118 7.1524 16.156C7.04601 16.2002 6.93195 16.2229 6.81675 16.2229C6.70156 16.2229 6.58749 16.2002 6.48111 16.156C6.37472 16.1118 6.27811 16.0471 6.19682 15.9654L1.52082 11.2851C1.43952 11.2034 1.34291 11.1387 1.23652 11.0945C1.13014 11.0503 1.01608 11.0276 0.900878 11.0276C0.785681 11.0276 0.671618 11.0503 0.565233 11.0945C0.458848 11.1387 0.362236 11.2034 0.280941 11.2851C0.199323 11.3664 0.134562 11.463 0.0903735 11.5694C0.0461846 11.6757 0.0234375 11.7898 0.0234375 11.905C0.0234375 12.0202 0.0461846 12.1343 0.0903735 12.2406C0.134562 12.347 0.199323 12.4436 0.280941 12.5249L4.95869 17.2018C5.45215 17.6944 6.12086 17.971 6.81807 17.971C7.51527 17.971 8.18399 17.6944 8.67744 17.2018L20.7682 5.11369C20.8497 5.03241 20.9143 4.93585 20.9584 4.82955C21.0025 4.72325 21.0253 4.60928 21.0253 4.49419C21.0253 4.3791 21.0025 4.26514 20.9584 4.15883C20.9143 4.05253 20.8497 3.95597 20.7682 3.87469C20.6869 3.79307 20.5903 3.72831 20.4839 3.68412C20.3775 3.63993 20.2635 3.61719 20.1483 3.61719C20.0331 3.61719 19.919 3.63993 19.8126 3.68412C19.7062 3.72831 19.6096 3.79307 19.5283 3.87469Z" fill="white"/>
</g>
<defs>
<clipPath id="clip0_2313_39803">
<rect width="21" height="21" fill="white"/>
</clipPath>
</defs>
</svg>
