<svg width="18" height="18" viewBox="0 0 18 18" fill="none" xmlns="http://www.w3.org/2000/svg">
<path id="Vector" d="M17.9951 2.32425C18.048 1.79484 17.6648 1.31707 17.1099 1.25251C16.5682 1.18795 16.0794 1.57532 16.0133 2.11765L15.934 2.86657C14.2164 1.07174 11.7854 0 9.20896 0C4.12223 0 0 4.04161 0 9C0 13.9584 4.13545 18 9.20896 18C12.6574 18 15.8019 16.1406 17.3874 13.1449C17.6384 12.6671 17.4534 12.0861 16.9646 11.8407C16.4757 11.5954 15.8812 11.7762 15.6301 12.2539C14.375 14.604 11.9175 16.0631 9.20896 16.0631C5.21885 16.0631 1.98184 12.8867 1.98184 9C1.98184 5.11334 5.23207 1.93687 9.20896 1.93687C11.2833 1.93687 13.2255 2.81492 14.5864 4.29986L13.4633 4.18364C12.9216 4.13199 12.4328 4.50646 12.3667 5.04878C12.3139 5.57819 12.697 6.05595 13.2519 6.12052L16.5418 6.46915C16.5418 6.46915 16.6078 6.46915 16.6475 6.46915C17.1495 6.46915 17.5723 6.09469 17.6252 5.60402C17.6252 5.60402 17.6252 5.5911 17.6252 5.57819C17.6252 5.57819 17.6252 5.56528 17.6252 5.55237L17.9819 2.33716L17.9951 2.32425Z" fill="#848484"/>
</svg>
