<svg width="20" height="20" viewBox="0 0 20 20" fill="none" xmlns="http://www.w3.org/2000/svg">
<mask id="path-1-inside-1_1392_41730" fill="white">
<path d="M8.14327 2.50026C8.05813 2.49781 7.97339 2.51279 7.89425 2.54428C7.81511 2.57577 7.74325 2.6231 7.68306 2.68336C7.56587 2.80057 7.50004 2.95953 7.50004 3.12527C7.50004 3.29101 7.56587 3.44997 7.68306 3.56718L9.11619 5.0003H6.25C3.496 5.0003 1.25 7.2463 1.25 10.0003C1.25 12.7543 3.496 15.0003 6.25 15.0003H6.875C7.04076 15.0003 7.19973 14.9345 7.31694 14.8172C7.43415 14.7 7.5 14.5411 7.5 14.3753C7.5 14.2095 7.43415 14.0506 7.31694 13.9334C7.19973 13.8161 7.04076 13.7503 6.875 13.7503H6.25C4.1715 13.7503 2.5 12.0788 2.5 10.0003C2.5 7.9218 4.1715 6.2503 6.25 6.2503H9.11619L7.68306 7.68343C7.56587 7.80063 7.50004 7.95959 7.50004 8.12533C7.50004 8.29108 7.56587 8.45003 7.68306 8.56724C7.80027 8.68443 7.95922 8.75026 8.12497 8.75026C8.29071 8.75026 8.44967 8.68443 8.56687 8.56724L11.0669 6.06724C11.184 5.95002 11.2499 5.79107 11.2499 5.62533C11.2499 5.4596 11.184 5.30064 11.0669 5.18343L8.56687 2.68343C8.45421 2.57059 8.30265 2.50503 8.14327 2.50026Z"/>
</mask>
<path d="M8.14327 2.50026C8.05813 2.49781 7.97339 2.51279 7.89425 2.54428C7.81511 2.57577 7.74325 2.6231 7.68306 2.68336C7.56587 2.80057 7.50004 2.95953 7.50004 3.12527C7.50004 3.29101 7.56587 3.44997 7.68306 3.56718L9.11619 5.0003H6.25C3.496 5.0003 1.25 7.2463 1.25 10.0003C1.25 12.7543 3.496 15.0003 6.25 15.0003H6.875C7.04076 15.0003 7.19973 14.9345 7.31694 14.8172C7.43415 14.7 7.5 14.5411 7.5 14.3753C7.5 14.2095 7.43415 14.0506 7.31694 13.9334C7.19973 13.8161 7.04076 13.7503 6.875 13.7503H6.25C4.1715 13.7503 2.5 12.0788 2.5 10.0003C2.5 7.9218 4.1715 6.2503 6.25 6.2503H9.11619L7.68306 7.68343C7.56587 7.80063 7.50004 7.95959 7.50004 8.12533C7.50004 8.29108 7.56587 8.45003 7.68306 8.56724C7.80027 8.68443 7.95922 8.75026 8.12497 8.75026C8.29071 8.75026 8.44967 8.68443 8.56687 8.56724L11.0669 6.06724C11.184 5.95002 11.2499 5.79107 11.2499 5.62533C11.2499 5.4596 11.184 5.30064 11.0669 5.18343L8.56687 2.68343C8.45421 2.57059 8.30265 2.50503 8.14327 2.50026Z" fill="#4B4B4B"/>
<path d="M8.14327 2.50026L8.29277 -2.49751L8.28694 -2.49768L8.14327 2.50026ZM7.68306 2.68336L11.2189 6.21861L11.221 6.21645L7.68306 2.68336ZM7.68306 3.56718L4.14724 7.10243L4.14753 7.10271L7.68306 3.56718ZM9.11619 5.0003V10.0003H21.1873L12.6517 1.46477L9.11619 5.0003ZM9.11619 6.2503L12.6517 9.78584L21.1873 1.2503H9.11619V6.2503ZM7.68306 7.68343L4.14753 4.14789L4.14724 4.14818L7.68306 7.68343ZM7.68306 8.56724L4.14724 12.1025L4.14781 12.1031L7.68306 8.56724ZM8.56687 8.56724L12.1021 12.1031L12.1024 12.1028L8.56687 8.56724ZM11.0669 6.06724L14.6024 9.60277L14.603 9.60214L11.0669 6.06724ZM11.2499 5.62533L16.2499 5.62533L11.2499 5.62533ZM11.0669 5.18343L14.603 1.64853L14.6024 1.64789L11.0669 5.18343ZM8.56687 2.68343L5.02872 6.21634L5.03134 6.21896L8.56687 2.68343ZM8.28694 -2.49768C7.5207 -2.5197 6.75805 -2.38489 6.0458 -2.1015L9.74271 7.19005C9.18873 7.41047 8.59556 7.51533 7.9996 7.49819L8.28694 -2.49768ZM6.0458 -2.1015C5.33354 -1.8181 4.68673 -1.39212 4.14508 -0.849721L11.221 6.21645C10.7998 6.63832 10.2967 6.96964 9.74271 7.19005L6.0458 -2.1015ZM4.14724 -0.851885C3.09255 0.202974 2.50004 1.63357 2.50004 3.12527H12.5C12.5 4.28548 12.0392 5.39817 11.2189 6.21861L4.14724 -0.851885ZM2.50004 3.12527C2.50004 4.61697 3.09255 6.04757 4.14724 7.10243L11.2189 0.0319269C12.0392 0.852371 12.5 1.96506 12.5 3.12527H2.50004ZM4.14753 7.10271L5.58065 8.53584L12.6517 1.46477L11.2186 0.0316427L4.14753 7.10271ZM9.11619 0.0003016H6.25V10.0003H9.11619V0.0003016ZM6.25 0.0003016C0.734575 0.0003016 -3.75 4.48488 -3.75 10.0003H6.25L6.25 10.0003V0.0003016ZM-3.75 10.0003C-3.75 15.5157 0.734576 20.0003 6.25 20.0003V10.0003L6.25 10.0003H-3.75ZM6.25 20.0003H6.875V10.0003H6.25V20.0003ZM6.875 20.0003C8.36686 20.0003 9.79759 19.4077 10.8525 18.3528L3.78141 11.2817C4.60187 10.4612 5.71466 10.0003 6.875 10.0003V20.0003ZM10.8525 18.3528C11.9074 17.2979 12.5 15.8672 12.5 14.3753H2.5C2.5 13.215 2.96094 12.1022 3.78141 11.2817L10.8525 18.3528ZM12.5 14.3753C12.5 12.8835 11.9074 11.4527 10.8525 10.3978L3.78141 17.4689C2.96093 16.6484 2.5 15.5356 2.5 14.3753H12.5ZM10.8525 10.3978C9.79758 9.34293 8.36683 8.7503 6.875 8.7503V18.7503C5.71469 18.7503 4.60188 18.2894 3.78141 17.4689L10.8525 10.3978ZM6.875 8.7503H6.25V18.7503H6.875V8.7503ZM6.25 8.7503C6.93292 8.7503 7.5 9.31738 7.5 10.0003H-2.5C-2.5 14.8402 1.41008 18.7503 6.25 18.7503V8.7503ZM7.5 10.0003C7.5 10.6832 6.93292 11.2503 6.25 11.2503V1.2503C1.41007 1.2503 -2.5 5.16038 -2.5 10.0003H7.5ZM6.25 11.2503H9.11619V1.2503H6.25V11.2503ZM5.58065 2.71477L4.14753 4.14789L11.2186 11.219L12.6517 9.78584L5.58065 2.71477ZM4.14724 4.14818C3.09255 5.20304 2.50004 6.63364 2.50004 8.12533H12.5C12.5 9.28554 12.0392 10.3982 11.2189 11.2187L4.14724 4.14818ZM2.50004 8.12533C2.50004 9.61703 3.09256 11.0476 4.14724 12.1025L11.2189 5.03199C12.0392 5.85243 12.5 6.96512 12.5 8.12533H2.50004ZM4.14781 12.1031C5.20267 13.1577 6.63327 13.7503 8.12497 13.7503V3.75026C9.28518 3.75026 10.3979 4.21111 11.2183 5.03142L4.14781 12.1031ZM8.12497 13.7503C9.61666 13.7503 11.0473 13.1577 12.1021 12.1031L5.03162 5.03142C5.85207 4.21111 6.96476 3.75026 8.12497 3.75026V13.7503ZM12.1024 12.1028L14.6024 9.60277L7.53134 2.53171L5.03134 5.03171L12.1024 12.1028ZM14.603 9.60214C15.6575 8.54729 16.2499 7.11685 16.2499 5.62533L6.24987 5.62533C6.24987 4.4653 6.71059 3.35275 7.5307 2.53234L14.603 9.60214ZM16.2499 5.62533C16.2499 4.13383 15.6575 2.70338 14.603 1.64853L7.5307 8.71832C6.71058 7.89791 6.24987 6.78537 6.24987 5.62533L16.2499 5.62533ZM14.6024 1.64789L12.1024 -0.852107L5.03134 6.21896L7.53134 8.71896L14.6024 1.64789ZM12.105 -0.849488C11.0918 -1.86422 9.72829 -2.45456 8.29277 -2.49751L7.99377 7.49802C6.87701 7.46462 5.81662 7.00541 5.02872 6.21634L12.105 -0.849488Z" fill="#4B4B4B" mask="url(#path-1-inside-1_1392_41730)"/>
<path d="M11.8757 11.8758L11.8756 11.8758L11.8757 11.8758ZM11.8757 11.8758L11.8752 11.8754L11.8752 11.8754L11.8752 11.875L11.8752 11.8748L11.8753 11.8746L11.8753 11.874L11.8757 11.8758ZM10.8837 12.5H10.8837H11.2483H11.2497H11.8558L11.8745 11.8753L11.8745 11.875L11.8745 11.8747L11.4329 11.4332L10.9911 11.875L10.8837 11.9825V12.5ZM10.8837 12.5H10.3661L10.1829 12.6832C10.2736 12.873 10.3963 13.0479 10.5477 13.1996C10.5481 13.2 10.5485 13.2004 10.5489 13.2007C10.5489 13.2008 10.549 13.2009 10.549 13.2009L10.7008 13.0492L10.7011 13.0495L10.5493 13.2012C10.6511 13.3029 10.7634 13.3917 10.8837 13.4665V13.2617C10.8286 13.187 10.7677 13.1161 10.7013 13.0497L10.8837 13.2321V12.866V12.8641V12.5ZM11.433 17.3169C11.5502 17.4341 11.7092 17.5 11.8749 17.5C12.0406 17.5 12.1996 17.4341 12.3168 17.3169M12.3168 17.3169C12.434 17.1997 12.4998 17.0408 12.4998 16.875C12.4998 16.7093 12.434 16.5503 12.3168 16.4331L12.3161 16.4339L11.8749 16.875L11.875 16.875L12.3168 17.3169ZM12.3168 17.3169L11.8749 16.8751L11.8749 16.8751L11.4339 17.316M11.4339 17.316L11.4334 17.3166L11.4339 17.316ZM11.8745 11.8747L11.433 11.4331L11.433 11.4331C11.4932 11.3729 11.565 11.3255 11.6442 11.294C11.7117 11.2672 11.7833 11.2523 11.8558 11.2501L11.8745 11.8747Z" fill="#4B4B4B" stroke="#4B4B4B" stroke-width="5"/>
</svg>
