<svg width="24" height="24" viewBox="0 0 24 24" fill="none" xmlns="http://www.w3.org/2000/svg">
<g id="pause">
<path id="Vector" d="M9 20H6C5.73478 20 5.48043 19.9234 5.29289 19.787C5.10536 19.6506 5 19.4656 5 19.2727V4.72727C5 4.53439 5.10536 4.3494 5.29289 4.21301C5.48043 4.07662 5.73478 4 6 4H9C9.26522 4 9.51957 4.07662 9.70711 4.21301C9.89464 4.3494 10 4.53439 10 4.72727V19.2727C10 19.4656 9.89464 19.6506 9.70711 19.787C9.51957 19.9234 9.26522 20 9 20Z" fill="#848484"/>
<path id="Vector_2" d="M18.1475 19.9721L15.148 20.0262C14.8828 20.031 14.6271 19.959 14.4372 19.826C14.2472 19.693 14.1385 19.51 14.135 19.3171L13.8725 4.77403C13.869 4.58118 13.971 4.39432 14.1561 4.25457C14.3411 4.11481 14.594 4.03361 14.8592 4.02883L17.8587 3.97468C18.1239 3.96989 18.3796 4.04191 18.5696 4.1749C18.7595 4.30788 18.8682 4.49093 18.8717 4.68379L19.1342 19.2269C19.1377 19.4197 19.0357 19.6066 18.8506 19.7463C18.6656 19.8861 18.4127 19.9673 18.1475 19.9721Z" fill="#848484"/>
</g>
</svg>
