<svg width="20" height="20" viewBox="0 0 20 20" fill="none" xmlns="http://www.w3.org/2000/svg">
<g id="01 align center">
<path id="Vector" d="M17.5 3.33333H15.41L12.8383 0H7.16083L4.59 3.33333H2.5C1.83696 3.33333 1.20107 3.59673 0.732233 4.06557C0.263392 4.53441 0 5.17029 0 5.83333L0 20H20V5.83333C20 5.17029 19.7366 4.53441 19.2678 4.06557C18.7989 3.59673 18.163 3.33333 17.5 3.33333ZM7.98083 1.66667H12.02L13.305 3.33333H6.695L7.98083 1.66667ZM18.3333 18.3333H1.66667V5.83333C1.66667 5.61232 1.75446 5.40036 1.91074 5.24408C2.06702 5.0878 2.27899 5 2.5 5H17.5C17.721 5 17.933 5.0878 18.0893 5.24408C18.2455 5.40036 18.3333 5.61232 18.3333 5.83333V18.3333Z" fill="#D9D9D9"/>
<path id="Vector_2" d="M10 6.66406C9.0111 6.66406 8.0444 6.95731 7.22215 7.50671C6.39991 8.05612 5.75904 8.83702 5.3806 9.75065C5.00217 10.6643 4.90315 11.6696 5.09608 12.6395C5.289 13.6094 5.76521 14.5003 6.46447 15.1996C7.16373 15.8989 8.05465 16.3751 9.02455 16.568C9.99446 16.7609 10.9998 16.6619 11.9134 16.2835C12.8271 15.905 13.6079 15.2642 14.1574 14.4419C14.7068 13.6197 15 12.653 15 11.6641C14.9987 10.3384 14.4715 9.06739 13.5341 8.12999C12.5967 7.1926 11.3257 6.66539 10 6.66406ZM10 14.9974C9.34073 14.9974 8.69627 14.8019 8.1481 14.4356C7.59994 14.0694 7.1727 13.5488 6.9204 12.9397C6.66811 12.3306 6.6021 11.6604 6.73072 11.0138C6.85934 10.3672 7.1768 9.77322 7.64298 9.30704C8.10915 8.84086 8.7031 8.5234 9.3497 8.39478C9.9963 8.26616 10.6665 8.33217 11.2756 8.58446C11.8847 8.83676 12.4053 9.264 12.7716 9.81216C13.1378 10.3603 13.3333 11.0048 13.3333 11.6641C13.3333 12.5481 12.9821 13.396 12.357 14.0211C11.7319 14.6462 10.8841 14.9974 10 14.9974Z" fill="#D9D9D9"/>
</g>
</svg>
