<svg width="14" height="14" viewBox="0 0 14 14" fill="none" xmlns="http://www.w3.org/2000/svg">
<g id="Component 8">
<path id="Vector" d="M9.13893 4.88951C8.64345 4.39542 7.99054 4.09049 7.29363 4.02771C6.59671 3.96492 5.89982 4.14824 5.32401 4.54581C4.74819 4.94339 4.32983 5.53011 4.1416 6.20405C3.95337 6.878 4.00716 7.59659 4.29363 8.235C4.58009 8.87341 5.08114 9.3913 5.70973 9.69873C6.33831 10.0061 7.05473 10.0837 7.73453 9.91783C8.41433 9.75199 9.01456 9.35327 9.43097 8.79092C9.84737 8.22857 10.0536 7.53812 10.0139 6.83951" stroke="#848484" stroke-linecap="round" stroke-linejoin="round"/>
<path id="Vector_2" d="M11.2704 2.76741C10.2067 1.70051 8.78118 1.07182 7.27606 1.00578C5.77094 0.939747 4.29587 1.44117 3.14281 2.41082C1.98975 3.38046 1.24274 4.74766 1.04962 6.2418C0.8565 7.73594 1.23135 9.24814 2.09998 10.4791C2.96862 11.71 4.26772 12.57 5.74017 12.8888C7.21262 13.2077 8.75111 12.9621 10.0511 12.2007C11.3511 11.4393 12.3179 10.2176 12.7602 8.77737C13.2024 7.33717 13.0878 5.78342 12.4391 4.42366" stroke="#848484" stroke-linecap="round" stroke-linejoin="round"/>
<path id="Vector_3" d="M7.02344 7.00781L13.0234 1.00781" stroke="#848484" stroke-linecap="round" stroke-linejoin="round"/>
</g>
</svg>
