<svg width="44" height="44" viewBox="0 0 44 44" fill="none" xmlns="http://www.w3.org/2000/svg">
<g clip-path="url(#clip0_377_31187)">
<path d="M40.44 17.6922C40.17 17.6922 39.88 17.7622 39.62 17.9122L33.5 21.4422V19.4522C33.5 16.9922 31.5 14.9922 29.04 14.9922H6.46C4 15.0022 2 17.0022 2 19.4622V34.0422C2 36.5022 4 38.5022 6.46 38.5022H29.04C31.5 38.5022 33.5 36.5022 33.5 34.0422V32.0522L39.62 35.5822C39.89 35.7322 40.17 35.8022 40.44 35.8022C41.3 35.8022 42.09 35.1122 42.09 34.1522V19.3522C42.09 18.3922 41.3 17.7022 40.44 17.7022V17.6922ZM32 34.0422C32 35.6722 30.67 37.0022 29.04 37.0022H6.46C4.83 37.0022 3.5 35.6722 3.5 34.0422V19.4622C3.5 17.8322 4.83 16.5022 6.46 16.5022H29.04C30.67 16.5022 32 17.8322 32 19.4622V34.0422ZM40.6 34.1522C40.6 34.2922 40.45 34.3022 40.45 34.3022C40.44 34.3022 40.41 34.3022 40.38 34.2822L33.51 30.3122V23.1822L40.38 19.2122C40.38 19.2122 40.44 19.1922 40.45 19.1922C40.45 19.1922 40.6 19.2022 40.6 19.3422V34.1522Z" fill="#D9D9D9"/>
<path d="M10.6725 25.2469H7.9025C6.8825 25.2469 6.0625 24.4169 6.0625 23.4069V20.6369C6.0625 19.6169 6.8925 18.7969 7.9025 18.7969H10.6725C11.6925 18.7969 12.5125 19.6269 12.5125 20.6369V23.4069C12.5125 24.4269 11.6825 25.2469 10.6725 25.2469ZM7.9025 19.7869C7.4325 19.7869 7.0625 20.1669 7.0625 20.6269V23.3969C7.0625 23.8669 7.4425 24.2369 7.9025 24.2369H10.6725C11.1425 24.2369 11.5125 23.8569 11.5125 23.3969V20.6269C11.5125 20.1569 11.1325 19.7869 10.6725 19.7869H7.9025Z" fill="#D9D9D9"/>
</g>
<circle cx="14" cy="11" r="4.25" stroke="#D9D9D9" stroke-width="1.5"/>
<circle cx="22" cy="12" r="3.25" stroke="#D9D9D9" stroke-width="1.5"/>
<defs>
<clipPath id="clip0_377_31187">
<rect width="40.1" height="23.5" fill="white" transform="translate(2 15)"/>
</clipPath>
</defs>
</svg>
