<svg width="24" height="24" viewBox="0 0 24 24" fill="none" xmlns="http://www.w3.org/2000/svg">
<g clip-path="url(#clip0_450_34564)">
<path d="M20.25 4.14634H16V2.73171C16 2.33171 15.66 2 15.25 2C14.84 2 14.5 2.33171 14.5 2.73171V4.14634H9.5V2.73171C9.5 2.33171 9.16 2 8.75 2C8.34 2 8 2.33171 8 2.73171V4.14634H3.75C2.78 4.14634 2 4.91707 2 5.85366V20.2829C2 21.2293 2.79 21.9902 3.75 21.9902H20.24C21.21 21.9902 21.99 21.2195 21.99 20.2829V5.85366C21.99 4.90732 21.2 4.14634 20.24 4.14634H20.25ZM20.5 20.2927C20.5 20.4293 20.39 20.5366 20.25 20.5366H3.75C3.61 20.5366 3.5 20.4293 3.5 20.2927V9.96098H20.5V20.2927ZM20.5 8.49756H3.5V5.86341C3.5 5.72683 3.61 5.61951 3.75 5.61951H8V6.6439C8 7.0439 8.34 7.37561 8.75 7.37561C9.16 7.37561 9.5 7.0439 9.5 6.6439V5.61951H14.5V6.6439C14.5 7.0439 14.84 7.37561 15.25 7.37561C15.66 7.37561 16 7.0439 16 6.6439V5.61951H20.25C20.39 5.61951 20.5 5.72683 20.5 5.86341V8.49756Z" fill="white"/>
<path d="M7.22738 14.5272C7.35738 14.5272 7.49738 14.4882 7.61738 14.4199L7.89738 14.254C7.83738 14.5369 7.79738 14.8199 7.79738 15.1125C7.79738 17.3662 9.67738 19.2003 11.9874 19.2003C12.3974 19.2003 12.7374 18.8686 12.7374 18.4686C12.7374 18.0686 12.3974 17.7369 11.9874 17.7369C10.5074 17.7369 9.29738 16.5564 9.29738 15.1125C9.29738 14.9467 9.31738 14.7808 9.34738 14.615L9.49738 14.8589C9.63738 15.0833 9.88738 15.2101 10.1374 15.2101C10.2674 15.2101 10.4074 15.1711 10.5274 15.1028C10.8774 14.8882 10.9974 14.4394 10.7774 14.0979L9.67738 12.3321C9.45738 11.9906 8.99738 11.8833 8.64738 12.0882L6.83738 13.1613C6.48738 13.376 6.36738 13.8247 6.58738 14.1662C6.72738 14.3906 6.97738 14.5174 7.22738 14.5174V14.5272Z" fill="white"/>
<path d="M11.8203 12.4849C13.3003 12.4849 14.5103 13.6654 14.5103 15.1093C14.5103 15.2752 14.4903 15.441 14.4603 15.6069L14.3103 15.363C14.0903 15.0215 13.6303 14.9142 13.2803 15.1191C12.9303 15.3337 12.8103 15.7825 13.0303 16.1239L14.1303 17.8898C14.2703 18.1142 14.5203 18.241 14.7703 18.241C14.9003 18.241 15.0403 18.202 15.1603 18.1337L16.9703 17.0605C17.3203 16.8459 17.4403 16.3971 17.2203 16.0556C17.0003 15.7142 16.5403 15.6069 16.1903 15.8117L15.9103 15.9776C15.9703 15.6947 16.0103 15.4117 16.0103 15.1191C16.0103 12.8654 14.1303 11.0312 11.8203 11.0312C11.4103 11.0312 11.0703 11.363 11.0703 11.763C11.0703 12.163 11.4103 12.4947 11.8203 12.4947V12.4849Z" fill="white"/>
</g>
<defs>
<clipPath id="clip0_450_34564">
<rect width="20" height="20" fill="white" transform="translate(2 2)"/>
</clipPath>
</defs>
</svg>
