<svg width="36" height="36" viewBox="0 0 36 36" fill="none" xmlns="http://www.w3.org/2000/svg">
<path d="M17.5676 11.0231C13.537 15.2431 12.1068 20.6931 12.2168 22.1531C12.2768 22.9331 12.8869 23.5431 13.677 23.6031C15.1373 23.7131 20.6281 22.2831 24.8988 18.2931C28.7594 14.6831 31.8399 11.6131 32.59 10.7331C32.7101 10.5931 32.8101 10.4631 32.8901 10.3531C32.9101 10.3331 32.9201 10.3031 32.9401 10.2731C33.1401 10.0031 33.3202 9.68306 33.4802 9.35306C33.5702 9.15306 33.6802 8.87306 33.7702 8.56306C34.1403 7.33306 34.3003 5.36306 32.49 3.55306L32.47 3.53306C30.6197 1.70306 28.6094 1.87306 27.3692 2.25306C27.0692 2.34306 26.7991 2.44306 26.6091 2.53306C26.269 2.68306 25.949 2.87306 25.6789 3.06306C25.6589 3.08306 25.6289 3.09306 25.5989 3.11306C25.4889 3.19306 25.3589 3.29306 25.2189 3.41306C24.4087 4.08306 21.4683 6.98306 17.5876 11.0331L17.5676 11.0231ZM23.8686 17.1931C19.728 21.0631 14.5772 22.1531 13.717 22.0331C13.657 21.2431 14.7572 16.1331 18.6578 12.0531C21.8783 8.68306 24.5888 5.98306 25.7489 4.91306C25.989 6.17306 26.5991 7.38306 27.5692 8.36306C28.5394 9.34306 29.7696 9.95306 31.0398 10.1931C29.9996 11.3031 27.4292 13.8631 23.8686 17.1931ZM27.2092 3.88306C28.0993 3.48306 29.8296 3.03306 31.3998 4.59306L31.4199 4.61306C32.9601 6.15306 32.52 7.85306 32.11 8.72306C32.1 8.75306 32.08 8.77306 32.07 8.79306C30.8198 8.74306 29.5796 8.26306 28.6294 7.31306C27.6793 6.36306 27.2092 5.15306 27.1492 3.92306C27.1692 3.91306 27.1892 3.90306 27.2092 3.89306V3.88306Z" fill="#848484"/>
<path d="M19.9107 34H16.1001C8.32884 34 2.00782 27.68 2.00782 19.91V16.1C1.99782 8.32 8.31883 2 16.0901 2H18.0004C18.4104 2 18.7505 2.34 18.7505 2.75C18.7505 3.16 18.4104 3.5 18.0004 3.5H16.0901C9.14897 3.5 3.49806 9.15 3.49806 16.09V19.9C3.49806 26.84 9.14897 32.49 16.0901 32.49H19.9007C26.8418 32.49 32.4927 26.84 32.4927 19.9V17.99C32.4927 17.58 32.8328 17.24 33.2428 17.24C33.6529 17.24 33.9929 17.58 33.9929 17.99V19.9C33.9929 27.67 27.6719 33.99 19.9007 33.99L19.9107 34Z" fill="#848484"/>
</svg>
