<svg width="24" height="24" viewBox="0 0 24 24" fill="none" xmlns="http://www.w3.org/2000/svg">
<g clip-path="url(#clip0_1068_16132)">
<path d="M20.2813 16.53L18.6813 13.72C18.6813 13.72 18.6613 13.67 18.6613 13.65V8.74C18.6613 5.02 15.6713 2 12.0013 2C8.33127 2 5.34127 5.02 5.34127 8.74L5.32127 13.73L3.72127 16.53C3.42127 17.05 3.43127 17.66 3.72127 18.18C4.02127 18.69 4.54127 18.99 5.13127 18.99H8.44127C8.75127 20.69 10.2213 21.99 12.0013 21.99C13.7813 21.99 15.2513 20.69 15.5613 18.99H18.8713C19.4613 18.99 19.9813 18.69 20.2813 18.18C20.5813 17.66 20.5813 17.05 20.2813 16.53ZM12.0013 20.5C11.0613 20.5 10.2713 19.87 9.99127 19H14.0113C13.7313 19.87 12.9413 20.5 12.0013 20.5ZM18.9813 17.43C18.9813 17.43 18.9213 17.5 18.8713 17.5H5.14127C5.14127 17.5 5.05127 17.48 5.03127 17.43C5.01127 17.39 4.99127 17.34 5.03127 17.27L6.63127 14.46C6.77127 14.21 6.85127 13.93 6.85127 13.64V8.73C6.85127 5.84 9.17127 3.49 12.0113 3.49C14.8513 3.49 17.1713 5.84 17.1713 8.73V13.64C17.1713 13.93 17.2513 14.21 17.3913 14.46L18.9913 17.27C19.0313 17.33 19.0113 17.39 18.9913 17.43H18.9813Z" fill="white"/>
</g>
<circle cx="20.5" cy="3.5" r="1.5" fill="#DF445D"/>
<defs>
<clipPath id="clip0_1068_16132">
<rect width="17" height="20" fill="white" transform="translate(3.5 2)"/>
</clipPath>
</defs>
</svg>
