<svg width="20" height="20" viewBox="0 0 20 20" fill="none" xmlns="http://www.w3.org/2000/svg">
<path fill-rule="evenodd" clip-rule="evenodd" d="M2.5 8.33333C1.57953 8.33333 0.833333 9.07953 0.833333 10C0.833333 10.9205 1.57953 11.6667 2.5 11.6667C3.42047 11.6667 4.16667 10.9205 4.16667 10C4.16667 9.07953 3.42047 8.33333 2.5 8.33333ZM0 10C0 8.61929 1.11929 7.5 2.5 7.5C3.88071 7.5 5 8.61929 5 10C5 11.3807 3.88071 12.5 2.5 12.5C1.11929 12.5 0 11.3807 0 10Z" fill="#848484"/>
<path fill-rule="evenodd" clip-rule="evenodd" d="M17.5 8.33333C16.5795 8.33333 15.8333 9.07953 15.8333 10C15.8333 10.9205 16.5795 11.6667 17.5 11.6667C18.4205 11.6667 19.1667 10.9205 19.1667 10C19.1667 9.07953 18.4205 8.33333 17.5 8.33333ZM15 10C15 8.61929 16.1193 7.5 17.5 7.5C18.8807 7.5 20 8.61929 20 10C20 11.3807 18.8807 12.5 17.5 12.5C16.1193 12.5 15 11.3807 15 10Z" fill="#848484"/>
<path fill-rule="evenodd" clip-rule="evenodd" d="M10 8.33333C9.07953 8.33333 8.33333 9.07953 8.33333 10C8.33333 10.9205 9.07953 11.6667 10 11.6667C10.9205 11.6667 11.6667 10.9205 11.6667 10C11.6667 9.07953 10.9205 8.33333 10 8.33333ZM7.5 10C7.5 8.61929 8.61929 7.5 10 7.5C11.3807 7.5 12.5 8.61929 12.5 10C12.5 11.3807 11.3807 12.5 10 12.5C8.61929 12.5 7.5 11.3807 7.5 10Z" fill="#848484"/>
</svg>
