<svg width="16" height="12" viewBox="0 0 16 12" fill="none" xmlns="http://www.w3.org/2000/svg">
<g id="_&#235;&#160;&#136;&#236;&#157;&#180;&#236;&#150;&#180;_1" clip-path="url(#clip0_995_7206)">
<path id="Vector" d="M14.5 0H1.5C0.67 0 0 0.67 0 1.5V10.5C0 11.33 0.67 12 1.5 12H14.5C15.33 12 16 11.33 16 10.5V1.5C16 0.67 15.33 0 14.5 0ZM14.14 1L8 6.22L1.86 1H14.14ZM14.5 11H1.5C1.23 11 1 10.78 1 10.5V1.58L7.68 7.26C7.77 7.34 7.89 7.38 8 7.38C8.11 7.38 8.23 7.34 8.32 7.26L15 1.58V10.5C15 10.77 14.78 11 14.5 11Z" fill="#D9D9D9"/>
</g>
<defs>
<clipPath id="clip0_995_7206">
<rect width="16" height="12" fill="white"/>
</clipPath>
</defs>
</svg>
