<svg width="20" height="20" viewBox="0 0 20 20" fill="none" xmlns="http://www.w3.org/2000/svg">
<g clip-path="url(#clip0_608_13522)">
<path d="M10 18C5.59 18 2 14.41 2 10C2 5.59 5.59 2 10 2C14.41 2 18 5.59 18 10C18 14.41 14.41 18 10 18ZM10 3C6.14 3 3 6.14 3 10C3 13.86 6.14 17 10 17C13.86 17 17 13.86 17 10C17 6.14 13.86 3 10 3Z" fill="white"/>
<path d="M12.8679 14.8225C12.7779 14.8225 12.6879 14.8125 12.5979 14.7825C10.6879 14.2425 9.09793 13.3525 7.88793 12.1125C6.65793 10.8925 5.75793 9.31249 5.21793 7.40249C5.08793 6.95249 5.29793 6.46249 5.71793 6.24249L7.50793 5.30249C7.98793 5.05249 8.56793 5.22249 8.83793 5.69249L9.77793 7.34249C10.0179 7.76249 9.91793 8.29249 9.54793 8.60249L8.95793 9.09249C9.22793 9.55249 9.83793 10.4125 10.9379 11.0525L11.4079 10.4625C11.7179 10.0925 12.2479 9.99249 12.6679 10.2325L14.3179 11.1725C14.7879 11.4425 14.9579 12.0225 14.7079 12.5025L13.7679 14.2925C13.5879 14.6225 13.2379 14.8325 12.8779 14.8325L12.8679 14.8225ZM7.96793 6.18249L6.18793 7.12249C6.67793 8.87249 7.48793 10.3025 8.59793 11.3925C9.68793 12.5125 11.1279 13.3225 12.8679 13.8025L13.8179 12.0125L12.1679 11.0825L11.6979 11.6625C11.3879 12.0325 10.8479 12.1325 10.4379 11.9025C9.12793 11.1525 8.40793 10.1225 8.09793 9.57249C7.85793 9.14249 7.94793 8.61249 8.31793 8.30249L8.90793 7.81249L7.96793 6.17249V6.18249Z" fill="white"/>
</g>
<defs>
<clipPath id="clip0_608_13522">
<rect width="16" height="16" fill="white" transform="translate(2 2)"/>
</clipPath>
</defs>
</svg>
