<svg width="24" height="24" viewBox="0 0 24 24" fill="none" xmlns="http://www.w3.org/2000/svg">
<g id="message-circle-lines">
<g id="Icon">
<path d="M7.00132 9H17.0013V11H7.00132V9Z" fill="white"/>
<path d="M7.00132 13H12.0013V15H7.00132V13Z" fill="white"/>
<path fill-rule="evenodd" clip-rule="evenodd" d="M1.00132 12C1.00132 5.92487 5.92618 1 12.0013 1C18.0765 1 23.0013 5.92487 23.0013 12C23.0013 18.0751 18.0765 23 12.0013 23C10.3286 23 8.74071 22.626 7.31896 21.9563L0.726562 23.2748L2.04504 16.6824C1.37535 15.2606 1.00132 13.6727 1.00132 12ZM12.0013 3C7.03075 3 3.00132 7.02944 3.00132 12C3.00132 13.4751 3.35545 14.8647 3.98244 16.091L4.14094 16.4009L3.27607 20.7252L7.60039 19.8604L7.91037 20.0189C9.13665 20.6459 10.5262 21 12.0013 21C16.9719 21 21.0013 16.9706 21.0013 12C21.0013 7.02944 16.9719 3 12.0013 3Z" fill="white"/>
</g>
</g>
</svg>
