<svg width="24" height="24" viewBox="0 0 24 24" fill="none" xmlns="http://www.w3.org/2000/svg">
<path d="M12 22C17.5228 22 22 17.5228 22 12C22 6.47715 17.5228 2 12 2C6.47715 2 2 6.47715 2 12C2 17.5228 6.47715 22 12 22Z" fill="#DF445D"/>
<path d="M14.7109 6.75H13.7109C13.4348 6.75 13.2109 6.97386 13.2109 7.25V16.75C13.2109 17.0261 13.4348 17.25 13.7109 17.25H14.7109C14.9871 17.25 15.2109 17.0261 15.2109 16.75V7.25C15.2109 6.97386 14.9871 6.75 14.7109 6.75Z" fill="white"/>
<path d="M10.2969 6.75H9.29688C9.02073 6.75 8.79688 6.97386 8.79688 7.25V16.75C8.79688 17.0261 9.02073 17.25 9.29688 17.25H10.2969C10.573 17.25 10.7969 17.0261 10.7969 16.75V7.25C10.7969 6.97386 10.573 6.75 10.2969 6.75Z" fill="white"/>
</svg>
