<svg width="14" height="14" viewBox="0 0 14 14" fill="none" xmlns="http://www.w3.org/2000/svg">
<path fill-rule="evenodd" clip-rule="evenodd" d="M7.29142 10.4243C7.13084 10.2806 6.86978 10.2806 6.7092 10.4243C6.54861 10.568 6.54861 10.8016 6.7092 10.9453L10.0024 13.8922C10.1556 14.0359 10.434 14.0359 10.5863 13.8922L13.8796 10.9453C14.0401 10.8016 14.0401 10.568 13.8796 10.4243C13.719 10.2806 13.4579 10.2806 13.2973 10.4243L10.7057 12.7426V4.78991C10.7057 2.14883 8.30352 0 5.35286 0C2.4022 0 0 2.14883 0 4.78991V12.159C0 12.3624 0.184468 12.5275 0.411759 12.5275C0.639873 12.5275 0.823517 12.3624 0.823517 12.159V4.78991C0.823517 2.55487 2.85596 0.73691 5.35286 0.73691C7.85059 0.73691 9.88221 2.55487 9.88221 4.78991V12.7426L7.29142 10.4243Z" fill="#848484"/>
</svg>
