<svg width="44" height="44" viewBox="0 0 44 44" fill="none" xmlns="http://www.w3.org/2000/svg">
<g clip-path="url(#clip0_265_8809)">
<path d="M3.06131 23.2897C2.85131 23.2897 2.64131 23.2297 2.46131 23.1097C2.06131 22.8397 1.90131 22.3497 2.06131 21.8897C6.33131 10.1397 17.4813 7.65974 22.0813 7.13974C22.2013 7.12974 22.2913 7.01974 22.2913 6.88974V3.74974C22.2913 3.02974 22.7213 2.39974 23.3813 2.12974C24.0413 1.85974 24.7913 2.01974 25.2913 2.52974L33.2613 10.6997C33.9313 11.3897 33.9313 12.4597 33.2613 13.1397L25.2913 21.3097C24.7913 21.8197 24.0413 21.9797 23.3813 21.7097C22.7213 21.4397 22.2913 20.7997 22.2913 20.0897V16.4397C22.2913 16.3197 22.1913 16.1997 22.0713 16.1897C13.5913 15.2197 9.81131 17.6497 3.77131 23.0197C3.57131 23.1997 3.32131 23.2897 3.07131 23.2897H3.06131ZM24.0413 3.49974C24.0413 3.49974 23.9613 3.50974 23.9413 3.51974C23.8813 3.53974 23.7813 3.60974 23.7813 3.74974V6.89974C23.7813 7.78974 23.1213 8.53974 22.2413 8.63974C17.1913 9.20974 8.39131 11.5497 4.19131 20.6697C10.0213 15.6997 14.2013 13.7897 22.2313 14.7097C23.1113 14.8097 23.7813 15.5597 23.7813 16.4497V20.0997C23.7813 20.2397 23.8613 20.2997 23.9413 20.3297C24.0013 20.3497 24.1113 20.3797 24.2113 20.2697L32.1813 12.0997C32.2713 11.9997 32.2713 11.8497 32.1813 11.7497L24.2113 3.57974C24.1513 3.51974 24.0913 3.49974 24.0413 3.49974Z" fill="#848484"/>
<path d="M19.9569 41.9982C19.4969 41.9982 19.0469 41.8182 18.7069 41.4682L10.7369 33.2982C10.0669 32.6182 10.0669 31.5382 10.7369 30.8582L18.7069 22.6882C19.2069 22.1782 19.9569 22.0182 20.6169 22.2882C21.2769 22.5582 21.7069 23.1982 21.7069 23.9082V27.5582C21.7069 27.6782 21.8069 27.7982 21.9269 27.8082C30.4169 28.7782 34.1869 26.3482 40.2269 20.9782C40.5869 20.6582 41.1269 20.6182 41.5269 20.8982C41.9269 21.1682 42.0869 21.6582 41.9269 22.1182C37.6569 33.8782 26.5069 36.3482 21.9169 36.8682C21.7969 36.8782 21.7069 36.9882 21.7069 37.1182V40.2682C21.7069 40.9882 21.2769 41.6182 20.6169 41.8882C20.3969 41.9782 20.1769 42.0182 19.9569 42.0182V41.9982ZM19.9569 23.6482C19.9069 23.6482 19.8469 23.6682 19.7869 23.7282L11.8169 31.8982C11.7269 31.9982 11.7269 32.1482 11.8169 32.2482L19.7869 40.4182C19.8869 40.5182 19.9869 40.5082 20.0569 40.4782C20.1169 40.4582 20.2169 40.3882 20.2169 40.2482V37.0982C20.2169 36.2082 20.8769 35.4582 21.7569 35.3582C26.8069 34.7882 35.6069 32.4582 39.8069 23.3282C33.9769 28.2982 29.8069 30.2082 21.7669 29.2882C20.8869 29.1882 20.2169 28.4382 20.2169 27.5482V23.8982C20.2169 23.7482 20.1169 23.6882 20.0569 23.6682C20.0269 23.6582 19.9969 23.6482 19.9569 23.6482Z" fill="#848484"/>
</g>
<g clip-path="url(#clip1_265_8809)">
<path d="M3.06131 23.2897C2.85131 23.2897 2.64131 23.2297 2.46131 23.1097C2.06131 22.8397 1.90131 22.3497 2.06131 21.8897C6.33131 10.1397 17.4813 7.65974 22.0813 7.13974C22.2013 7.12974 22.2913 7.01974 22.2913 6.88974V3.74974C22.2913 3.02974 22.7213 2.39974 23.3813 2.12974C24.0413 1.85974 24.7913 2.01974 25.2913 2.52974L33.2613 10.6997C33.9313 11.3897 33.9313 12.4597 33.2613 13.1397L25.2913 21.3097C24.7913 21.8197 24.0413 21.9797 23.3813 21.7097C22.7213 21.4397 22.2913 20.7997 22.2913 20.0897V16.4397C22.2913 16.3197 22.1913 16.1997 22.0713 16.1897C13.5913 15.2197 9.81131 17.6497 3.77131 23.0197C3.57131 23.1997 3.32131 23.2897 3.07131 23.2897H3.06131ZM24.0413 3.49974C24.0413 3.49974 23.9613 3.50974 23.9413 3.51974C23.8813 3.53974 23.7813 3.60974 23.7813 3.74974V6.89974C23.7813 7.78974 23.1213 8.53974 22.2413 8.63974C17.1913 9.20974 8.39131 11.5497 4.19131 20.6697C10.0213 15.6997 14.2013 13.7897 22.2313 14.7097C23.1113 14.8097 23.7813 15.5597 23.7813 16.4497V20.0997C23.7813 20.2397 23.8613 20.2997 23.9413 20.3297C24.0013 20.3497 24.1113 20.3797 24.2113 20.2697L32.1813 12.0997C32.2713 11.9997 32.2713 11.8497 32.1813 11.7497L24.2113 3.57974C24.1513 3.51974 24.0913 3.49974 24.0413 3.49974Z" fill="#848484"/>
<path d="M19.9569 41.9982C19.4969 41.9982 19.0469 41.8182 18.7069 41.4682L10.7369 33.2982C10.0669 32.6182 10.0669 31.5382 10.7369 30.8582L18.7069 22.6882C19.2069 22.1782 19.9569 22.0182 20.6169 22.2882C21.2769 22.5582 21.7069 23.1982 21.7069 23.9082V27.5582C21.7069 27.6782 21.8069 27.7982 21.9269 27.8082C30.4169 28.7782 34.1869 26.3482 40.2269 20.9782C40.5869 20.6582 41.1269 20.6182 41.5269 20.8982C41.9269 21.1682 42.0869 21.6582 41.9269 22.1182C37.6569 33.8782 26.5069 36.3482 21.9169 36.8682C21.7969 36.8782 21.7069 36.9882 21.7069 37.1182V40.2682C21.7069 40.9882 21.2769 41.6182 20.6169 41.8882C20.3969 41.9782 20.1769 42.0182 19.9569 42.0182V41.9982ZM19.9569 23.6482C19.9069 23.6482 19.8469 23.6682 19.7869 23.7282L11.8169 31.8982C11.7269 31.9982 11.7269 32.1482 11.8169 32.2482L19.7869 40.4182C19.8869 40.5182 19.9869 40.5082 20.0569 40.4782C20.1169 40.4582 20.2169 40.3882 20.2169 40.2482V37.0982C20.2169 36.2082 20.8769 35.4582 21.7569 35.3582C26.8069 34.7882 35.6069 32.4582 39.8069 23.3282C33.9769 28.2982 29.8069 30.2082 21.7669 29.2882C20.8869 29.1882 20.2169 28.4382 20.2169 27.5482V23.8982C20.2169 23.7482 20.1169 23.6882 20.0569 23.6682C20.0269 23.6582 19.9969 23.6482 19.9569 23.6482Z" fill="#848484"/>
</g>
<defs>
<clipPath id="clip0_265_8809">
<rect width="40" height="40" fill="white" transform="translate(2 2)"/>
</clipPath>
<clipPath id="clip1_265_8809">
<rect width="40" height="40" fill="white" transform="translate(2 2)"/>
</clipPath>
</defs>
</svg>
