<svg width="20" height="20" viewBox="0 0 20 20" fill="none" xmlns="http://www.w3.org/2000/svg">
<path d="M10 20C15.5228 20 20 15.5228 20 10C20 4.47715 15.5228 0 10 0C4.47715 0 0 4.47715 0 10C0 15.5228 4.47715 20 10 20Z" fill="#DF445D"/>
<path d="M13.9375 7.84217L14.5063 7.27436C14.624 7.15556 14.6901 6.99444 14.6901 6.82643C14.6901 6.65842 14.624 6.49729 14.5063 6.37849C14.3886 6.25969 14.229 6.19295 14.0625 6.19295C13.8961 6.19295 13.7365 6.25969 13.6188 6.37849L13.0563 6.95261C12.1804 6.26862 11.1043 5.89751 9.99689 5.89751C8.88949 5.89751 7.81342 6.26862 6.93752 6.95261L6.36877 6.37218C6.25025 6.25338 6.08983 6.18697 5.92281 6.18756C5.75578 6.18815 5.59583 6.2557 5.47814 6.37533C5.36045 6.49497 5.29466 6.6569 5.29525 6.8255C5.29584 6.9941 5.36275 7.15556 5.48127 7.27436L6.05627 7.84848C5.37065 8.73019 4.99864 9.819 5.00002 10.9399C4.99798 11.7445 5.18656 12.538 5.55003 13.2542C5.91351 13.9703 6.44134 14.5884 7.08951 15.0568C7.73768 15.5252 8.4874 15.8303 9.27615 15.9468C10.0649 16.0633 10.8698 15.9878 11.6237 15.7264C12.3777 15.4651 13.0588 15.0256 13.6103 14.4446C14.1618 13.8636 14.5676 13.1579 14.7941 12.3864C15.0205 11.6149 15.0609 10.7999 14.9119 10.0094C14.7629 9.21892 14.4288 8.47585 13.9375 7.84217ZM10 14.7253C9.25834 14.7253 8.53331 14.5033 7.91663 14.0873C7.29994 13.6714 6.8193 13.0802 6.53547 12.3885C6.25164 11.6968 6.17738 10.9357 6.32207 10.2014C6.46677 9.4671 6.82392 8.79261 7.34837 8.26321C7.87281 7.73381 8.541 7.37329 9.26843 7.22723C9.99586 7.08117 10.7499 7.15613 11.4351 7.44264C12.1203 7.72915 12.706 8.21433 13.118 8.83683C13.5301 9.45934 13.75 10.1912 13.75 10.9399C13.75 11.9438 13.3549 12.9067 12.6517 13.6166C11.9484 14.3265 10.9946 14.7253 10 14.7253ZM8.75002 5.2618H11.25C11.4158 5.2618 11.5747 5.19533 11.692 5.07701C11.8092 4.95869 11.875 4.79822 11.875 4.6309C11.875 4.46357 11.8092 4.3031 11.692 4.18479C11.5747 4.06647 11.4158 4 11.25 4H8.75002C8.58426 4 8.42528 4.06647 8.30807 4.18479C8.19086 4.3031 8.12502 4.46357 8.12502 4.6309C8.12502 4.79822 8.19086 4.95869 8.30807 5.07701C8.42528 5.19533 8.58426 5.2618 8.75002 5.2618ZM10.625 9.04719C10.625 8.87987 10.5592 8.71939 10.442 8.60108C10.3247 8.48276 10.1658 8.41629 10 8.41629C9.83426 8.41629 9.67528 8.48276 9.55807 8.60108C9.44086 8.71939 9.37502 8.87987 9.37502 9.04719V10.2396C9.2335 10.3674 9.13375 10.5355 9.08897 10.7218C9.04418 10.908 9.05648 11.1036 9.12423 11.2826C9.19198 11.4617 9.31199 11.6157 9.46837 11.7244C9.62476 11.8331 9.81015 11.8913 10 11.8913C10.1899 11.8913 10.3753 11.8331 10.5317 11.7244C10.688 11.6157 10.8081 11.4617 10.8758 11.2826C10.9436 11.1036 10.9558 10.908 10.9111 10.7218C10.8663 10.5355 10.7665 10.3674 10.625 10.2396V9.04719Z" fill="white"/>
</svg>
